<svg width="22" height="22" viewBox="0 0 22 22" fill="none" xmlns="http://www.w3.org/2000/svg">
<path d="M18.25 9.128C18.25 9.54221 18.5858 9.878 19 9.878C19.4142 9.878 19.75 9.54221 19.75 9.128H19H18.25ZM2.172 16.066L1.63742 16.592L1.63776 16.5924L2.172 16.066ZM3.8382 17.7323C4.24266 17.8217 4.64298 17.5663 4.73234 17.1618C4.8217 16.7573 4.56626 16.357 4.1618 16.2677L4 17L3.8382 17.7323ZM20.523 13.03L21.1302 12.5898L21.1298 12.5891L20.523 13.03ZM19.97 12.477L20.4109 11.8702L20.4102 11.8698L19.97 12.477ZM8.03 12.477L7.5898 11.8698L7.58915 11.8702L8.03 12.477ZM7.477 13.03L6.87025 12.5891L6.86945 12.5902L7.477 13.03ZM7.477 19.97L6.86977 20.4102L6.87058 20.4113L7.477 19.97ZM8.031 20.523L8.47163 19.9161L8.47122 19.9158L8.031 20.523ZM19.97 20.523L20.4102 21.1302L20.4109 21.1298L19.97 20.523ZM20.523 19.97L21.1298 20.4109L21.1302 20.4102L20.523 19.97ZM15.9897 14.4319C15.6759 14.1615 15.2023 14.1966 14.9319 14.5103C14.6615 14.8241 14.6966 15.2977 15.0103 15.5681L15.5 15L15.9897 14.4319ZM16.42 15.793L15.9303 16.3611L15.9308 16.3615L16.42 15.793ZM16.42 17.207L15.9308 16.6385L15.9303 16.6389L16.42 17.207ZM15.0103 17.4319C14.6966 17.7023 14.6615 18.1759 14.9319 18.4897C15.2023 18.8034 15.6759 18.8385 15.9897 18.5681L15.5 18L15.0103 17.4319ZM12.9897 15.5681C13.3034 15.2977 13.3385 14.8241 13.0681 14.5103C12.7977 14.1966 12.3241 14.1615 12.0103 14.4319L12.5 15L12.9897 15.5681ZM11.58 15.793L12.0692 16.3615L12.0697 16.3611L11.58 15.793ZM11.58 17.207L12.0697 16.6389L12.0692 16.6385L11.58 17.207ZM12.0103 18.5681C12.3241 18.8385 12.7977 18.8034 13.0681 18.4897C13.3385 18.1759 13.3034 17.7023 12.9897 17.4319L12.5 18L12.0103 18.5681ZM1.5 4.25C1.08579 4.25 0.75 4.58579 0.75 5C0.75 5.41421 1.08579 5.75 1.5 5.75V5V4.25ZM18.5 5.75C18.9142 5.75 19.25 5.41421 19.25 5C19.25 4.58579 18.9142 4.25 18.5 4.25V5V5.75ZM19 9.128H19.75C19.75 7.23289 19.7515 5.73749 19.597 4.5702C19.4398 3.38243 19.1089 2.42238 18.3626 1.66395L17.828 2.19L17.2934 2.71605C17.7191 3.14862 17.9742 3.74157 18.11 4.76705C18.2485 5.81301 18.25 7.19111 18.25 9.128H19ZM17.828 2.19L18.3626 1.66395C17.6145 0.903729 16.6646 0.565548 15.49 0.405262C14.3384 0.248106 12.8638 0.25 11 0.25V1V1.75C12.9072 1.75 14.2606 1.75139 15.2872 1.89149C16.2909 2.02845 16.8695 2.28527 17.2934 2.71605L17.828 2.19ZM11 1V0.25H9V1V1.75H11V1ZM9 1V0.25C7.13603 0.25 5.6613 0.248358 4.50952 0.405647C3.33499 0.566044 2.38506 0.904184 1.63742 1.66395L2.172 2.19L2.70658 2.71605C3.12994 2.28582 3.70851 2.02896 4.71248 1.89185C5.7392 1.75164 7.09297 1.75 9 1.75V1ZM2.172 2.19L1.63742 1.66395C0.891553 2.42192 0.560725 3.38202 0.403371 4.56975C0.248707 5.73718 0.25 7.23277 0.25 9.128H1H1.75C1.75 7.19124 1.75179 5.81282 1.89038 4.76675C2.02628 3.74098 2.28145 3.14808 2.70658 2.71605L2.172 2.19ZM1 9.128H0.25C0.25 11.0231 0.248455 12.5185 0.402987 13.6858C0.560228 14.8736 0.891096 15.8336 1.63742 16.592L2.172 16.066L2.70658 15.54C2.2809 15.1074 2.02577 14.5144 1.89001 13.4889C1.75155 12.443 1.75 11.0649 1.75 9.128H1ZM2.172 16.066L1.63776 16.5924C2.2347 17.1982 2.96261 17.5389 3.8382 17.7323L4 17L4.1618 16.2677C3.48939 16.1191 3.0493 15.8878 2.70624 15.5396L2.172 16.066ZM21 16.5H21.75C21.75 15.5792 21.751 14.8285 21.686 14.2279C21.6195 13.6132 21.4767 13.0677 21.1302 12.5898L20.523 13.03L19.9158 13.4702C20.0463 13.6503 20.142 13.9023 20.1947 14.3893C20.249 14.8905 20.25 15.5458 20.25 16.5H21ZM20.523 13.03L21.1298 12.5891C20.9293 12.3133 20.6867 12.0707 20.4109 11.8702L19.97 12.477L19.5291 13.0838C19.6777 13.1917 19.8083 13.3223 19.9162 13.4709L20.523 13.03ZM19.97 12.477L20.4102 11.8698C19.9323 11.5233 19.3868 11.3805 18.7721 11.314C18.1715 11.249 17.4208 11.25 16.5 11.25V12V12.75C17.4542 12.75 18.1095 12.751 18.6107 12.8053C19.0977 12.858 19.3497 12.9537 19.5298 13.0842L19.97 12.477ZM16.5 12V11.25H11.5V12V12.75H16.5V12ZM11.5 12V11.25C10.5792 11.25 9.82852 11.249 9.22792 11.314C8.61323 11.3805 8.06774 11.5233 7.5898 11.8698L8.03 12.477L8.4702 13.0842C8.65026 12.9537 8.90227 12.858 9.38933 12.8053C9.89048 12.751 10.5458 12.75 11.5 12.75V12ZM8.03 12.477L7.58915 11.8702C7.31328 12.0707 7.07068 12.3133 6.87025 12.5891L7.477 13.03L8.08375 13.4709C8.19168 13.3223 8.32231 13.1917 8.47085 13.0838L8.03 12.477ZM7.477 13.03L6.86945 12.5902C6.5233 13.0685 6.38052 13.6139 6.31398 14.2287C6.24897 14.8293 6.25 15.5797 6.25 16.5H7H7.75C7.75 15.5463 7.75103 14.8912 7.80527 14.3901C7.85798 13.9031 7.9537 13.6505 8.08455 13.4698L7.477 13.03ZM7 16.5H6.25C6.25 17.4203 6.24897 18.171 6.31398 18.7717C6.3805 19.3864 6.52325 19.9322 6.86977 20.4102L7.477 19.97L8.08423 19.5298C7.95375 19.3498 7.858 19.0976 7.80527 18.6103C7.75103 18.109 7.75 17.4537 7.75 16.5H7ZM7.477 19.97L6.87058 20.4113C7.07141 20.6873 7.31446 20.9299 7.59078 21.1302L8.031 20.523L8.47122 19.9158C8.32243 19.8079 8.19156 19.6773 8.08342 19.5287L7.477 19.97ZM8.031 20.523L7.59037 21.1299C8.068 21.4767 8.61351 21.6195 9.22803 21.686C9.82852 21.751 10.5792 21.75 11.5 21.75V21V20.25C10.5458 20.25 9.89048 20.249 9.38947 20.1947C8.90249 20.142 8.65101 20.0463 8.47163 19.9161L8.031 20.523ZM11.5 21V21.75H16.5V21V20.25H11.5V21ZM16.5 21V21.75C17.4208 21.75 18.1715 21.751 18.7721 21.686C19.3868 21.6195 19.9323 21.4767 20.4102 21.1302L19.97 20.523L19.5298 19.9158C19.3497 20.0463 19.0977 20.142 18.6107 20.1947C18.1095 20.249 17.4542 20.25 16.5 20.25V21ZM19.97 20.523L20.4109 21.1298C20.6867 20.9293 20.9293 20.6867 21.1298 20.4109L20.523 19.97L19.9162 19.5291C19.8083 19.6777 19.6777 19.8083 19.5291 19.9162L19.97 20.523ZM20.523 19.97L21.1302 20.4102C21.4767 19.9323 21.6195 19.3868 21.686 18.7721C21.751 18.1715 21.75 17.4208 21.75 16.5H21H20.25C20.25 17.4542 20.249 18.1095 20.1947 18.6107C20.142 19.0977 20.0463 19.3497 19.9158 19.5298L20.523 19.97ZM15.5 15L15.0103 15.5681L15.9303 16.3611L16.42 15.793L16.9097 15.2249L15.9897 14.4319L15.5 15ZM16.42 15.793L15.9308 16.3615C16.0295 16.4464 16.1063 16.5126 16.1702 16.5706C16.2347 16.629 16.2718 16.6663 16.2933 16.6906C16.3152 16.7153 16.3045 16.7085 16.2885 16.6753C16.2687 16.6344 16.25 16.5728 16.25 16.5H17H17.75C17.75 16.1304 17.5653 15.8647 17.4169 15.6969C17.2784 15.5402 17.0864 15.3769 16.9092 15.2245L16.42 15.793ZM17 16.5H16.25C16.25 16.4272 16.2687 16.3656 16.2885 16.3247C16.3045 16.2915 16.3152 16.2847 16.2933 16.3094C16.2718 16.3337 16.2347 16.371 16.1702 16.4294C16.1063 16.4874 16.0295 16.5536 15.9308 16.6385L16.42 17.207L16.9092 17.7755C17.0864 17.6231 17.2784 17.4598 17.4169 17.3031C17.5653 17.1353 17.75 16.8696 17.75 16.5H17ZM16.42 17.207L15.9303 16.6389L15.0103 17.4319L15.5 18L15.9897 18.5681L16.9097 17.7751L16.42 17.207ZM12.5 15L12.0103 14.4319L11.0903 15.2249L11.58 15.793L12.0697 16.3611L12.9897 15.5681L12.5 15ZM11.58 15.793L11.0908 15.2245C10.9136 15.3769 10.7216 15.5402 10.5831 15.6969C10.4347 15.8647 10.25 16.1304 10.25 16.5H11H11.75C11.75 16.5728 11.7313 16.6344 11.7115 16.6753C11.6955 16.7085 11.6848 16.7153 11.7067 16.6906C11.7282 16.6663 11.7653 16.629 11.8298 16.5706C11.8937 16.5126 11.9705 16.4464 12.0692 16.3615L11.58 15.793ZM11 16.5H10.25C10.25 16.8696 10.4347 17.1353 10.5831 17.3031C10.7216 17.4598 10.9136 17.6231 11.0908 17.7755L11.58 17.207L12.0692 16.6385C11.9705 16.5536 11.8937 16.4874 11.8298 16.4294C11.7653 16.371 11.7282 16.3337 11.7067 16.3094C11.6848 16.2847 11.6955 16.2915 11.7115 16.3247C11.7313 16.3656 11.75 16.4272 11.75 16.5H11ZM11.58 17.207L11.0903 17.7751L12.0103 18.5681L12.5 18L12.9897 17.4319L12.0697 16.6389L11.58 17.207ZM1.5 5V5.75H18.5V5V4.25H1.5V5Z" fill="#F44336"/>
</svg>
