<svg width="24" height="16" viewBox="0 0 24 16" fill="none" xmlns="http://www.w3.org/2000/svg">
<path d="M22.5 0H1.5C1.10218 0 0.720644 0.153246 0.43934 0.426026C0.158035 0.698807 0 1.06878 0 1.45455L0 14.5455C0 14.9312 0.158035 15.3012 0.43934 15.574C0.720644 15.8468 1.10218 16 1.5 16H22.5C22.8978 16 23.2794 15.8468 23.5607 15.574C23.842 15.3012 24 14.9312 24 14.5455V1.45455C24 1.06878 23.842 0.698807 23.5607 0.426026C23.2794 0.153246 22.8978 0 22.5 0ZM20.55 1.81818L12.63 8.81455C12.4583 8.96788 12.2334 9.05299 12 9.05299C11.7666 9.05299 11.5417 8.96788 11.37 8.81455L3.45 1.81818H20.55ZM1.875 14.1818V2.88L10.11 10.1527C10.6251 10.6127 11.2997 10.8681 12 10.8681C12.7003 10.8681 13.3749 10.6127 13.89 10.1527L22.125 2.88V14.1818H1.875Z" fill="white"/>
</svg>
