<svg width="21" height="19" viewBox="0 0 21 19" fill="none" xmlns="http://www.w3.org/2000/svg">
<path fill-rule="evenodd" clip-rule="evenodd" d="M2.87948 0.814722C4.12758 -0.427958 6.18279 -0.207151 7.22782 1.19163L8.52207 2.92111C9.37328 4.05904 9.29739 5.64885 8.28722 6.65429L8.04314 6.89872C8.01546 7.00132 8.01265 7.10907 8.03493 7.21298C8.09954 7.632 8.44926 8.51934 9.91375 9.97769C11.3782 11.436 12.2705 11.7852 12.695 11.8509C12.802 11.8725 12.9125 11.8693 13.0181 11.8417L13.4365 11.4247C14.3349 10.5312 15.7132 10.3638 16.8249 10.9688L18.7837 12.0368C20.4626 12.9488 20.8861 15.2329 19.5119 16.6019L18.0546 18.052C17.5951 18.509 16.9778 18.8901 16.225 18.9609C14.3687 19.1345 10.044 18.9127 5.49772 14.3866C1.25501 10.1615 0.440719 6.47662 0.337138 4.66087C0.28586 3.74272 0.718643 2.9663 1.27039 2.41788L2.87948 0.814722ZM5.99716 2.11491C5.47721 1.41963 4.50908 1.36417 3.96349 1.90746L2.35337 3.50959C2.01494 3.84645 1.8529 4.21823 1.87342 4.57357C1.95546 6.01652 2.61181 9.34094 6.58275 13.2949C10.7485 17.442 14.5954 17.5662 16.0824 17.4266C16.386 17.3988 16.6875 17.2407 16.9695 16.9603L18.4258 15.5092C19.0186 14.9196 18.8884 13.8454 18.0495 13.3894L16.0906 12.3223C15.5492 12.0286 14.9154 12.1252 14.5216 12.5175L14.0549 12.9827L13.5114 12.4363C14.0549 12.9827 14.0539 12.9837 14.0529 12.9837L14.0519 12.9858L14.0488 12.9889L14.0416 12.995L14.0262 13.0094C13.9829 13.0497 13.9363 13.0861 13.8867 13.1183C13.8047 13.1727 13.696 13.2333 13.5596 13.2836C13.2827 13.3874 12.9155 13.4428 12.4622 13.373C11.5731 13.2364 10.3947 12.6294 8.82871 11.0704C7.26372 9.51143 6.65249 8.33858 6.51507 7.44919C6.4443 6.99526 6.50071 6.62759 6.60531 6.35029C6.66289 6.19426 6.74531 6.04859 6.8494 5.91895L6.88221 5.88301L6.89657 5.8676L6.90272 5.86144L6.9058 5.85836L6.90785 5.8563L7.20321 5.56258C7.64215 5.12405 7.70368 4.39795 7.29038 3.8444L5.99716 2.11491Z" fill="#43A047"/>
</svg>
