<svg width="19" height="22" viewBox="0 0 19 22" fill="none" xmlns="http://www.w3.org/2000/svg">
<path d="M0.668792 1.83345C0.668792 1.49296 0.761875 1.15919 0.937612 0.869548C1.11335 0.579907 1.36479 0.345836 1.66377 0.193563C1.96276 0.0412897 2.29746 -0.0231689 2.63038 0.00740927C2.9633 0.0379875 3.28128 0.162394 3.5487 0.36669L17.9446 11.3674C19.327 12.4271 18.5926 14.6676 16.8647 14.6676H9.76029C9.4842 14.6678 9.21186 14.7328 8.96436 14.8574C8.71685 14.9821 8.50081 15.163 8.33294 15.3863L3.89429 21.279C2.84852 22.6687 0.666992 21.9152 0.666992 20.1624L0.668792 1.83345ZM16.8629 12.8341L2.46873 1.83528V20.1643L6.90559 14.2734C7.2415 13.8266 7.67388 13.4645 8.16923 13.2153C8.66457 12.966 9.2096 12.8362 9.76209 12.836L16.8629 12.8341Z" fill="#FFC107"/>
</svg>
