<svg width="18" height="21" viewBox="0 0 18 21" fill="none" xmlns="http://www.w3.org/2000/svg">
<path d="M14.2806 3.29C13.4961 2.37945 13.0637 1.2103 13.0638 0H9.51658V14.4667C9.48979 15.2497 9.16475 15.9916 8.61005 16.5357C8.05534 17.0799 7.31433 17.3838 6.54337 17.3833C4.91326 17.3833 3.55867 16.03 3.55867 14.35C3.55867 12.3433 5.46429 10.8383 7.4273 11.4567V7.77C3.46684 7.23333 0 10.36 0 14.35C0 18.235 3.16837 21 6.53189 21C10.1365 21 13.0638 18.025 13.0638 14.35V7.01167C14.5022 8.06149 16.2291 8.62475 18 8.62167V5.01667C18 5.01667 15.8418 5.12167 14.2806 3.29Z" fill="white"/>
</svg>
