<svg width="22" height="21" viewBox="0 0 22 21" fill="none" xmlns="http://www.w3.org/2000/svg">
<path d="M1.22304 18.8007L0.0864135 18.3382C0.00519901 18.5472 -0.0193802 18.7747 0.0152665 18.9968C0.0499132 19.2189 0.142503 19.4273 0.283275 19.6001C0.424046 19.7729 0.607786 19.9036 0.815124 19.9785C1.02246 20.0534 1.24572 20.0697 1.46136 20.0257L1.22304 18.8007ZM6.97459 17.6307L7.5539 16.5295L7.16647 16.317L6.73626 16.4045L6.97459 17.6307ZM3.20785 13.697L4.34447 14.1595L4.54368 13.642L4.30414 13.1432L3.20785 13.697ZM19.5557 10.0507C19.5557 14.1082 16.0688 17.5507 11.5749 17.5507V20.0507C17.247 20.0507 22 15.6582 22 10.0507H19.5557ZM3.59528 10.0507C3.59528 5.99326 7.08336 2.55077 11.5761 2.55077V0.0507812C5.90396 0.0507812 1.14971 4.44326 1.14971 10.0507H3.59528ZM11.5761 2.55077C16.0688 2.55077 19.5557 5.99326 19.5557 10.0507H22C22 4.44326 17.2482 0.0507812 11.5761 0.0507812V2.55077ZM11.5749 17.5507C10.1021 17.5507 8.73085 17.1757 7.5539 16.5295L6.39528 18.7307C7.98817 19.6041 9.76752 20.0577 11.5749 20.0507V17.5507ZM1.46136 20.0257L7.21291 18.8557L6.73626 16.4045L0.984712 17.5745L1.46136 20.027V20.0257ZM4.30414 13.1432C3.83886 12.1817 3.59713 11.1236 3.59528 10.0507H1.14971C1.14971 11.5507 1.49436 12.9732 2.11033 14.2507L4.30414 13.1432ZM2.07245 13.2345L0.0864135 18.3395L2.35721 19.262L4.34202 14.1582L2.07122 13.2345H2.07245Z" fill="#5C45FD"/>
<path d="M7.33391 11.3007C8.00889 11.3007 8.55608 10.7411 8.55608 10.0507C8.55608 9.36039 8.00889 8.80075 7.33391 8.80075C6.65892 8.80075 6.11173 9.36039 6.11173 10.0507C6.11173 10.7411 6.65892 11.3007 7.33391 11.3007Z" fill="#5C45FD"/>
<path d="M11.6115 11.3007C12.2865 11.3007 12.8337 10.7411 12.8337 10.0507C12.8337 9.36039 12.2865 8.80075 11.6115 8.80075C10.9365 8.80075 10.3893 9.36039 10.3893 10.0507C10.3893 10.7411 10.9365 11.3007 11.6115 11.3007Z" fill="#5C45FD"/>
<path d="M15.8891 11.3007C16.5641 11.3007 17.1113 10.7411 17.1113 10.0507C17.1113 9.36039 16.5641 8.80075 15.8891 8.80075C15.2141 8.80075 14.667 9.36039 14.667 10.0507C14.667 10.7411 15.2141 11.3007 15.8891 11.3007Z" fill="#5C45FD"/>
</svg>
