<svg width="17" height="16" viewBox="0 0 17 16" fill="none" xmlns="http://www.w3.org/2000/svg">
<path d="M6.01047 3.244C5.94519 3.094 5.80119 3 5.64471 3C5.48919 3 5.34519 3.094 5.27991 3.244L3.95223 6.238L1.07799 7.618C0.93399 7.686 0.84375 7.836 0.84375 8.001C0.84375 8.167 0.93399 8.314 1.07799 8.382L3.95223 9.765L5.27703 12.756C5.34231 12.905 5.48631 13 5.64279 13C5.79831 13 5.94231 12.905 6.00759 12.756L7.33527 9.762L10.2095 8.379C10.3525 8.311 10.4438 8.161 10.4438 7.999C10.4438 7.836 10.3525 7.686 10.2095 7.618L7.33815 6.238L6.01047 3.244Z"/>
<path d="M10.6247 2.219L12.0378 1.667L12.5677 0.195C12.61 0.0780002 12.7175 0 12.8375 0C12.9575 0 13.065 0.0780002 13.1073 0.195L13.6372 1.667L15.0503 2.219C15.1626 2.263 15.2375 2.375 15.2375 2.5C15.2375 2.625 15.1626 2.737 15.0503 2.781L13.6372 3.333L13.1073 4.805C13.065 4.922 12.9575 5 12.8375 5C12.7175 5 12.61 4.922 12.5677 4.805L12.0378 3.333L10.6247 2.781C10.5124 2.737 10.4375 2.625 10.4375 2.5C10.4375 2.375 10.5124 2.263 10.6247 2.219Z"/>
<path d="M12.3575 12L10.6621 12.663C10.5277 12.716 10.4375 12.85 10.4375 13C10.4375 13.15 10.5277 13.284 10.6621 13.337L12.3575 14L12.994 15.766C13.0449 15.906 13.1735 16 13.3175 16C13.4615 16 13.5901 15.906 13.641 15.766L14.2775 14L15.9729 13.337C16.1073 13.284 16.1975 13.15 16.1975 13C16.1975 12.85 16.1073 12.716 15.9729 12.663L14.2775 12L13.641 10.234C13.5901 10.094 13.4615 10 13.3175 10C13.1735 10 13.0449 10.094 12.994 10.234L12.3575 12Z"/>
</svg>
