<svg width="38" height="38" viewBox="0 0 38 38" fill="none" xmlns="http://www.w3.org/2000/svg">
<path d="M10.3895 18.2186L22.738 5.87005C27.438 1.17014 33.0203 0.880555 35.5112 1.02731C35.8908 1.05172 36.2486 1.21356 36.5176 1.48255C36.7866 1.75155 36.9484 2.1093 36.9728 2.48893C37.1196 4.97977 36.8261 10.566 32.1301 15.262L19.7815 27.6106M10.3895 18.2186L19.7815 27.6106M10.3895 18.2186L2.34364 17.0954C2.05604 17.0543 1.78556 16.9339 1.56249 16.7478C1.33941 16.5617 1.17254 16.3171 1.08055 16.0415C0.988553 15.766 0.975066 15.4702 1.0416 15.1874C1.10813 14.9046 1.25205 14.6459 1.45726 14.4402L8.17843 7.7191C8.47176 7.4261 8.86935 7.26143 9.28395 7.26124H21.3468M19.7815 27.6106L20.9046 35.6564C20.9458 35.944 21.0662 36.2144 21.2523 36.4375C21.4384 36.6606 21.6829 36.8275 21.9585 36.9195C22.2341 37.0114 22.5298 37.0249 22.8127 36.9584C23.0955 36.8919 23.3542 36.7479 23.5598 36.5427L30.281 29.8216C30.574 29.5283 30.7387 29.1307 30.7389 28.7161V16.6532M13.2384 29.9233C12.4812 31.5846 9.92966 35.4372 2.56278 35.4372C2.56278 28.0704 6.41547 25.5189 8.07669 24.7617" stroke="#5C45FD" stroke-width="2" stroke-linecap="round" stroke-linejoin="round"/>
</svg>
