<svg width="30" height="33" viewBox="0 0 30 33" fill="none" xmlns="http://www.w3.org/2000/svg">
<path d="M21.2222 1V7.2M8.77778 1V7.2M1 13.4H29M10.3333 23.475C10.3333 23.475 12.6667 24.25 13.4444 26.575C13.4444 26.575 16.8309 20.375 21.2222 18.825M16.5556 4.1H13.4444C7.57844 4.1 4.64467 4.1 2.82311 5.9166C1.00156 7.7332 1 10.6549 1 16.5V19.6C1 25.445 1 28.3683 2.82311 30.1834C4.64622 31.9984 7.57844 32 13.4444 32H16.5556C22.4216 32 25.3553 32 27.1769 30.1834C28.9984 28.3668 29 25.445 29 19.6V16.5C29 10.6549 29 7.73165 27.1769 5.9166C25.3538 4.10155 22.4216 4.1 16.5556 4.1Z" stroke="#5C45FD" stroke-width="2" stroke-linecap="round" stroke-linejoin="round"/>
</svg>
