<svg width="30" height="30" viewBox="0 0 30 30" fill="none" xmlns="http://www.w3.org/2000/svg">
<path d="M9.4 15H4.5C3.57174 15 2.6815 15.3687 2.02513 16.0251C1.36875 16.6815 1 17.5717 1 18.5C1 19.4283 1.36875 20.3185 2.02513 20.9749C2.6815 21.6313 3.57174 22 4.5 22H25.5C26.4283 22 27.3185 22.3687 27.9749 23.0251C28.6313 23.6815 29 24.5717 29 25.5C29 26.4283 28.6313 27.3185 27.9749 27.9749C27.3185 28.6313 26.4283 29 25.5 29H10.8M15 15V11.5L25.5 1L29 4.5L18.5 15H15Z" stroke="#5C45FD" stroke-width="2" stroke-linecap="round" stroke-linejoin="round"/>
</svg>
