<svg width="28" height="25" viewBox="0 0 28 25" fill="none" xmlns="http://www.w3.org/2000/svg">
<path d="M4.2 25V22.2222H23.8V25H4.2ZM4.2 20.1389L2.415 8.99306C2.36834 8.99306 2.3156 8.99908 2.2568 9.01111C2.198 9.02315 2.14574 9.02871 2.1 9.02778C1.51667 9.02778 1.02107 8.825 0.613203 8.41945C0.205336 8.01389 0.000936515 7.52222 3.18182e-06 6.94445C-0.000930151 6.36667 0.20347 5.875 0.613203 5.46945C1.02294 5.06389 1.51854 4.86111 2.1 4.86111C2.68147 4.86111 3.17754 5.06389 3.5882 5.46945C3.99887 5.875 4.2028 6.36667 4.2 6.94445C4.2 7.10648 4.18227 7.25695 4.1468 7.39584C4.11133 7.53472 4.07073 7.66204 4.025 7.77778L8.4 9.72222L12.775 3.78472C12.5183 3.59954 12.3083 3.35648 12.145 3.05556C11.9817 2.75463 11.9 2.43056 11.9 2.08334C11.9 1.50463 12.1044 1.0125 12.5132 0.606948C12.922 0.201392 13.4176 -0.000922762 14 3.16375e-06C14.5824 0.00092909 15.0785 0.203707 15.4882 0.608336C15.8979 1.01297 16.1019 1.50463 16.1 2.08334C16.1 2.43056 16.0183 2.75463 15.855 3.05556C15.6917 3.35648 15.4817 3.59954 15.225 3.78472L19.6 9.72222L23.975 7.77778C23.9283 7.66204 23.8873 7.53472 23.8518 7.39584C23.8163 7.25695 23.7991 7.10648 23.8 6.94445C23.8 6.36574 24.0044 5.87361 24.4132 5.46806C24.822 5.0625 25.3176 4.86019 25.9 4.86111C26.4824 4.86204 26.9785 5.06482 27.3882 5.46945C27.7979 5.87408 28.0019 6.36574 28 6.94445C27.9981 7.52315 27.7942 8.01528 27.3882 8.42084C26.9822 8.82639 26.4861 9.02871 25.9 9.02778C25.8533 9.02778 25.8011 9.02222 25.7432 9.01111C25.6853 9 25.6326 8.99398 25.585 8.99306L23.8 20.1389H4.2ZM6.58 17.3611H21.42L22.33 11.5625L18.655 13.1597L14 6.80556L9.345 13.1597L5.67 11.5625L6.58 17.3611Z" fill="white"/>
</svg>
