<svg width="28" height="30" viewBox="0 0 28 30" fill="none" xmlns="http://www.w3.org/2000/svg">
<path d="M10.1111 25.2632C9.64962 25.2632 9.19849 25.4021 8.81478 25.6623C8.43107 25.9226 8.132 26.2925 7.95539 26.7252C7.77879 27.158 7.73258 27.6342 7.82261 28.0936C7.91264 28.5531 8.13487 28.9751 8.46119 29.3063C8.78752 29.6375 9.20328 29.8631 9.6559 29.9545C10.1085 30.0459 10.5777 29.999 11.004 29.8197C11.4304 29.6405 11.7948 29.3369 12.0512 28.9474C12.3076 28.5579 12.4444 28.1 12.4444 27.6316C12.4444 27.0034 12.1986 26.401 11.761 25.9569C11.3234 25.5127 10.7299 25.2632 10.1111 25.2632ZM26.4444 20.5263H7.77778C7.36522 20.5263 6.96956 20.36 6.67783 20.0639C6.38611 19.7677 6.22222 19.3661 6.22222 18.9474C6.22222 18.5286 6.38611 18.127 6.67783 17.8309C6.96956 17.5348 7.36522 17.3684 7.77778 17.3684H20.986C21.9996 17.366 22.9851 17.0297 23.7944 16.4102C24.6036 15.7906 25.1929 14.9212 25.4738 13.9326L27.9393 5.16947C28.0053 4.93463 28.0166 4.68746 27.9725 4.4474C27.9284 4.20735 27.8301 3.98094 27.6852 3.78599C27.5403 3.59104 27.3529 3.43286 27.1376 3.32387C26.9223 3.21489 26.685 3.15807 26.4444 3.15789H7.37333C7.05046 2.23777 6.45612 1.44097 5.67121 0.875927C4.8863 0.31088 3.94893 0.00503092 2.98667 0H1.55556C1.143 0 0.747335 0.166353 0.455612 0.462463C0.163888 0.758573 0 1.16018 0 1.57895C0 1.99771 0.163888 2.39932 0.455612 2.69543C0.747335 2.99154 1.143 3.15789 1.55556 3.15789H2.98822C3.32601 3.15899 3.65437 3.27111 3.92414 3.47747C4.1939 3.68383 4.39056 3.97333 4.48467 4.30263L4.72578 5.16316V5.17105L7.27844 14.2374C6.09026 14.3663 4.99608 14.953 4.22139 15.8765C3.4467 16.8 3.05055 17.99 3.11457 19.2011C3.17859 20.4123 3.69791 21.5524 4.56549 22.3865C5.43308 23.2206 6.58282 23.6851 7.77778 23.6842H26.4444C26.857 23.6842 27.2527 23.5179 27.5444 23.2218C27.8361 22.9256 28 22.524 28 22.1053C28 21.6865 27.8361 21.2849 27.5444 20.9888C27.2527 20.6927 26.857 20.5263 26.4444 20.5263ZM24.3818 6.31579L22.484 13.0642C22.3901 13.3941 22.1933 13.6841 21.9232 13.8908C21.6531 14.0975 21.3243 14.2097 20.986 14.2105H10.5062L10.1096 12.8021L8.28489 6.31579H24.3818ZM22.5556 25.2632C22.0941 25.2632 21.6429 25.4021 21.2592 25.6623C20.8755 25.9226 20.5764 26.2925 20.3998 26.7252C20.2232 27.158 20.177 27.6342 20.2671 28.0936C20.3571 28.5531 20.5793 28.9751 20.9056 29.3063C21.232 29.6375 21.6477 29.8631 22.1003 29.9545C22.553 30.0459 23.0221 29.999 23.4485 29.8197C23.8748 29.6405 24.2393 29.3369 24.4957 28.9474C24.752 28.5579 24.8889 28.1 24.8889 27.6316C24.8889 27.0034 24.6431 26.401 24.2055 25.9569C23.7679 25.5127 23.1744 25.2632 22.5556 25.2632Z" fill="#5C45FD"/>
</svg>
