<svg xmlns="http://www.w3.org/2000/svg" xmlns:xlink="http://www.w3.org/1999/xlink" width="500" zoomAndPan="magnify" viewBox="0 0 375 149.999998" height="200" preserveAspectRatio="xMidYMid meet" version="1.0"><defs><clipPath id="ec7ea5c7e8"><path d="M 11.421875 121.472656 L 22.160156 121.472656 L 22.160156 134.179688 L 11.421875 134.179688 Z M 11.421875 121.472656 " clip-rule="nonzero"/></clipPath><clipPath id="22a923727f"><path d="M 19.132812 131.507812 C 19.992188 130.644531 20.425781 129.421875 20.425781 127.855469 C 20.425781 126.277344 19.988281 125.039062 19.121094 124.15625 C 18.253906 123.273438 17.003906 122.820312 15.375 122.820312 L 13.078125 122.820312 L 13.078125 132.8125 L 15.375 132.8125 C 17.011719 132.8125 18.265625 132.375 19.128906 131.507812 M 18.976562 122.246094 C 19.992188 122.765625 20.773438 123.5 21.3125 124.460938 C 21.855469 125.421875 22.125 126.550781 22.125 127.851562 C 22.125 129.148438 21.855469 130.277344 21.3125 131.226562 C 20.773438 132.175781 19.992188 132.910156 18.976562 133.414062 C 17.960938 133.917969 16.765625 134.171875 15.378906 134.171875 L 11.421875 134.171875 L 11.421875 121.472656 L 15.375 121.472656 C 16.757812 121.472656 17.957031 121.734375 18.972656 122.246094 " clip-rule="nonzero"/></clipPath><clipPath id="1b0a6d2d82"><path d="M 0.421875 0.472656 L 11.160156 0.472656 L 11.160156 13.179688 L 0.421875 13.179688 Z M 0.421875 0.472656 " clip-rule="nonzero"/></clipPath><clipPath id="ab855b7a77"><path d="M 8.132812 10.507812 C 8.992188 9.644531 9.425781 8.421875 9.425781 6.855469 C 9.425781 5.277344 8.988281 4.039062 8.121094 3.15625 C 7.253906 2.273438 6.003906 1.820312 4.375 1.820312 L 2.078125 1.820312 L 2.078125 11.8125 L 4.375 11.8125 C 6.011719 11.8125 7.265625 11.375 8.128906 10.507812 M 7.976562 1.246094 C 8.992188 1.765625 9.773438 2.5 10.3125 3.460938 C 10.855469 4.421875 11.125 5.550781 11.125 6.851562 C 11.125 8.148438 10.855469 9.277344 10.3125 10.226562 C 9.773438 11.175781 8.992188 11.910156 7.976562 12.414062 C 6.960938 12.917969 5.765625 13.171875 4.378906 13.171875 L 0.421875 13.171875 L 0.421875 0.472656 L 4.375 0.472656 C 5.757812 0.472656 6.957031 0.734375 7.972656 1.246094 " clip-rule="nonzero"/></clipPath><clipPath id="c3bedd548b"><rect x="0" width="12" y="0" height="14"/></clipPath><clipPath id="5c4839bd99"><path d="M 11.570312 54.617188 L 47.160156 54.617188 L 47.160156 62.734375 L 11.570312 62.734375 Z M 11.570312 62.734375 L 19.691406 62.734375 L 19.691406 105.117188 L 11.570312 105.117188 Z M 11.570312 62.734375 " clip-rule="nonzero"/></clipPath><clipPath id="0ffa539557"><path d="M 0.570312 0.617188 L 36.160156 0.617188 L 36.160156 8.734375 L 0.570312 8.734375 Z M 0.570312 8.734375 L 8.691406 8.734375 L 8.691406 51.117188 L 0.570312 51.117188 Z M 0.570312 8.734375 " clip-rule="nonzero"/></clipPath><clipPath id="9e126f899f"><rect x="0" width="37" y="0" height="52"/></clipPath><clipPath id="daf0d7ad8a"><path d="M 42.53125 121.472656 L 44.195312 121.472656 L 44.195312 134.175781 L 42.53125 134.175781 Z M 42.53125 121.472656 " clip-rule="nonzero"/></clipPath><clipPath id="d2602459be"><path d="M 0.53125 0.472656 L 2.195312 0.472656 L 2.195312 13.175781 L 0.53125 13.175781 Z M 0.53125 0.472656 " clip-rule="nonzero"/></clipPath><clipPath id="873f17d2e8"><rect x="0" width="3" y="0" height="14"/></clipPath><clipPath id="243b4718ae"><path d="M 64.585938 121.472656 L 71.667969 121.472656 L 71.667969 134.3125 L 64.585938 134.3125 Z M 64.585938 121.472656 " clip-rule="nonzero"/></clipPath><clipPath id="b511e202d1"><path d="M 71.640625 121.472656 L 71.640625 130.859375 C 71.640625 131.902344 71.320312 132.742188 70.675781 133.363281 C 70.03125 133.988281 69.179688 134.304688 68.125 134.304688 C 67.054688 134.304688 66.199219 133.984375 65.550781 133.347656 C 64.90625 132.714844 64.585938 131.839844 64.585938 130.730469 L 66.242188 130.730469 C 66.253906 131.347656 66.414062 131.855469 66.726562 132.242188 C 67.042969 132.628906 67.5 132.828125 68.125 132.828125 C 68.75 132.828125 69.207031 132.640625 69.511719 132.269531 C 69.8125 131.902344 69.96875 131.433594 69.96875 130.859375 L 69.96875 121.472656 Z M 71.640625 121.472656 " clip-rule="nonzero"/></clipPath><clipPath id="80a07d658e"><path d="M 0.585938 0.472656 L 7.667969 0.472656 L 7.667969 13.3125 L 0.585938 13.3125 Z M 0.585938 0.472656 " clip-rule="nonzero"/></clipPath><clipPath id="a366b7977f"><path d="M 7.640625 0.472656 L 7.640625 9.859375 C 7.640625 10.902344 7.320312 11.742188 6.675781 12.363281 C 6.03125 12.988281 5.179688 13.304688 4.125 13.304688 C 3.054688 13.304688 2.199219 12.984375 1.550781 12.347656 C 0.90625 11.714844 0.585938 10.839844 0.585938 9.730469 L 2.242188 9.730469 C 2.253906 10.347656 2.414062 10.855469 2.726562 11.242188 C 3.042969 11.628906 3.5 11.828125 4.125 11.828125 C 4.75 11.828125 5.207031 11.640625 5.511719 11.269531 C 5.8125 10.902344 5.96875 10.433594 5.96875 9.859375 L 5.96875 0.472656 Z M 7.640625 0.472656 " clip-rule="nonzero"/></clipPath><clipPath id="d6f9e58ab4"><rect x="0" width="8" y="0" height="14"/></clipPath><clipPath id="c59b854f16"><path d="M 93.128906 121.472656 L 94.789062 121.472656 L 94.789062 134.175781 L 93.128906 134.175781 Z M 93.128906 121.472656 " clip-rule="nonzero"/></clipPath><clipPath id="96daae5ef2"><path d="M 0.128906 0.472656 L 1.789062 0.472656 L 1.789062 13.175781 L 0.128906 13.175781 Z M 0.128906 0.472656 " clip-rule="nonzero"/></clipPath><clipPath id="c1736d22f4"><rect x="0" width="2" y="0" height="14"/></clipPath><clipPath id="57cac85aca"><path d="M 115.054688 121.472656 L 123.65625 121.472656 L 123.65625 122.820312 L 115.054688 122.820312 Z M 118.539062 122.820312 L 120.195312 122.820312 L 120.195312 134.175781 L 118.539062 134.175781 Z M 118.539062 122.820312 " clip-rule="nonzero"/></clipPath><clipPath id="de65ab55a0"><path d="M 0.0546875 0.472656 L 8.65625 0.472656 L 8.65625 1.820312 L 0.0546875 1.820312 Z M 3.539062 1.820312 L 5.195312 1.820312 L 5.195312 13.175781 L 3.539062 13.175781 Z M 3.539062 1.820312 " clip-rule="nonzero"/></clipPath><clipPath id="063a09a383"><rect x="0" width="9" y="0" height="14"/></clipPath><clipPath id="e081690cd6"><path d="M 77.648438 18.625 L 142.476562 18.625 L 142.476562 84.546875 L 77.648438 84.546875 Z M 77.648438 18.625 " clip-rule="nonzero"/></clipPath><clipPath id="a37768f944"><path d="M 97.605469 35.332031 C 108.503906 25.261719 123.363281 23.507812 136.375 30.75 L 137.011719 31.105469 L 142.414062 25.707031 L 141.351562 25.070312 C 132.957031 19.972656 123.734375 17.976562 114.675781 19.273438 C 106.355469 20.464844 98.539062 24.316406 92.058594 30.410156 C 85.269531 36.796875 80.515625 45.265625 78.679688 54.246094 C 76.664062 64.09375 78.148438 74.164062 82.976562 83.359375 L 83.589844 84.53125 L 89.160156 78.960938 L 88.878906 78.347656 C 81.117188 61.375 87.671875 44.511719 97.601562 35.332031 " clip-rule="nonzero"/></clipPath><clipPath id="10da0f50c3"><path d="M 0.648438 0.625 L 65.476562 0.625 L 65.476562 66.546875 L 0.648438 66.546875 Z M 0.648438 0.625 " clip-rule="nonzero"/></clipPath><clipPath id="b9ffb3c62e"><path d="M 20.605469 17.332031 C 31.503906 7.261719 46.363281 5.507812 59.375 12.75 L 60.011719 13.105469 L 65.414062 7.707031 L 64.351562 7.070312 C 55.957031 1.972656 46.734375 -0.0234375 37.675781 1.273438 C 29.355469 2.464844 21.539062 6.316406 15.058594 12.410156 C 8.269531 18.796875 3.515625 27.265625 1.679688 36.246094 C -0.335938 46.09375 1.148438 56.164062 5.976562 65.359375 L 6.589844 66.53125 L 12.160156 60.960938 L 11.878906 60.347656 C 4.117188 43.375 10.671875 26.511719 20.601562 17.332031 " clip-rule="nonzero"/></clipPath><clipPath id="24c6a72d42"><rect x="0" width="66" y="0" height="67"/></clipPath><clipPath id="527e0e0139"><path d="M 97 40.113281 L 162.144531 40.113281 L 162.144531 106.402344 L 97 106.402344 Z M 97 40.113281 " clip-rule="nonzero"/></clipPath><clipPath id="7b1fdee468"><path d="M 156.117188 40.285156 L 150.515625 45.890625 L 150.8125 46.507812 C 158.878906 63.425781 152.457031 80.316406 142.515625 89.554688 C 136.195312 95.425781 127.90625 98.800781 119.78125 98.800781 C 114.144531 98.800781 108.574219 97.253906 103.21875 94.199219 L 102.574219 93.832031 L 97.179688 99.222656 L 98.234375 99.871094 C 104.976562 104.003906 112.425781 106.191406 119.78125 106.191406 C 121.570312 106.191406 123.375 106.0625 125.152344 105.808594 C 133.550781 104.613281 141.441406 100.726562 147.964844 94.558594 C 154.773438 88.128906 159.507812 79.628906 161.300781 70.625 C 163.273438 60.734375 161.699219 50.644531 156.746094 41.441406 Z M 156.117188 40.285156 " clip-rule="nonzero"/></clipPath><clipPath id="b67a0555b1"><path d="M 0 0.113281 L 65.144531 0.113281 L 65.144531 66.320312 L 0 66.320312 Z M 0 0.113281 " clip-rule="nonzero"/></clipPath><clipPath id="402fd02c94"><path d="M 59.117188 0.285156 L 53.515625 5.890625 L 53.8125 6.507812 C 61.878906 23.425781 55.457031 40.316406 45.515625 49.554688 C 39.195312 55.425781 30.90625 58.800781 22.78125 58.800781 C 17.144531 58.800781 11.574219 57.253906 6.21875 54.199219 L 5.574219 53.832031 L 0.179688 59.222656 L 1.234375 59.871094 C 7.976562 64.003906 15.425781 66.191406 22.78125 66.191406 C 24.570312 66.191406 26.375 66.0625 28.152344 65.808594 C 36.550781 64.613281 44.441406 60.726562 50.964844 54.558594 C 57.773438 48.128906 62.507812 39.628906 64.300781 30.625 C 66.273438 20.734375 64.699219 10.644531 59.746094 1.441406 Z M 59.117188 0.285156 " clip-rule="nonzero"/></clipPath><clipPath id="de991525f9"><rect x="0" width="66" y="0" height="67"/></clipPath><clipPath id="be4ba1833b"><path d="M 11.570312 18.472656 L 73.953125 18.472656 L 73.953125 26.59375 L 11.570312 26.59375 Z M 11.570312 18.472656 " clip-rule="nonzero"/></clipPath><clipPath id="811ce2d7cf"><path d="M 0.570312 0.472656 L 62.953125 0.472656 L 62.953125 8.59375 L 0.570312 8.59375 Z M 0.570312 0.472656 " clip-rule="nonzero"/></clipPath><clipPath id="c5e7f207ac"><rect x="0" width="63" y="0" height="9"/></clipPath><clipPath id="69fd8bd5c7"><path d="M 143.121094 121.546875 L 154.246094 121.546875 L 154.246094 134.1875 L 143.121094 134.1875 Z M 143.121094 121.546875 " clip-rule="nonzero"/></clipPath><clipPath id="79da063260"><path d="M 150.960938 130.003906 L 148.664062 123.589844 L 146.367188 130.003906 Z M 151.4375 131.351562 L 145.894531 131.351562 L 144.871094 134.175781 L 143.121094 134.175781 L 147.714844 121.546875 L 149.628906 121.546875 L 154.207031 134.175781 L 152.453125 134.175781 Z M 151.4375 131.351562 " clip-rule="nonzero"/></clipPath><clipPath id="f63d6fb0a2"><path d="M 0.121094 0.546875 L 11.246094 0.546875 L 11.246094 13.1875 L 0.121094 13.1875 Z M 0.121094 0.546875 " clip-rule="nonzero"/></clipPath><clipPath id="e4885946e4"><path d="M 7.960938 9.003906 L 5.664062 2.589844 L 3.367188 9.003906 Z M 8.4375 10.351562 L 2.894531 10.351562 L 1.871094 13.175781 L 0.121094 13.175781 L 4.714844 0.546875 L 6.628906 0.546875 L 11.207031 13.175781 L 9.453125 13.175781 Z M 8.4375 10.351562 " clip-rule="nonzero"/></clipPath><clipPath id="8aad176e76"><rect x="0" width="12" y="0" height="14"/></clipPath><clipPath id="3e76bf6170"><path d="M 174.433594 121.476562 L 176.097656 121.476562 L 176.097656 132.828125 L 174.433594 132.828125 Z M 174.433594 132.828125 L 180.546875 132.828125 L 180.546875 134.175781 L 174.433594 134.175781 Z M 174.433594 132.828125 " clip-rule="nonzero"/></clipPath><clipPath id="c85f21e0f1"><path d="M 0.433594 0.476562 L 2.097656 0.476562 L 2.097656 11.828125 L 0.433594 11.828125 Z M 0.433594 11.828125 L 6.546875 11.828125 L 6.546875 13.175781 L 0.433594 13.175781 Z M 0.433594 11.828125 " clip-rule="nonzero"/></clipPath><clipPath id="636c66c6cc"><rect x="0" width="7" y="0" height="14"/></clipPath><clipPath id="c66d01582b"><path d="M 233.070312 121.613281 L 245.980469 121.613281 L 245.980469 134.277344 L 233.070312 134.277344 Z M 233.070312 121.613281 " clip-rule="nonzero"/></clipPath><clipPath id="ff22bfcf7d"><path d="M 245.953125 121.613281 L 245.953125 134.226562 L 244.300781 134.226562 L 244.300781 124.820312 L 240.105469 134.226562 L 238.9375 134.226562 L 234.734375 124.804688 L 234.734375 134.226562 L 233.070312 134.226562 L 233.070312 121.613281 L 234.859375 121.613281 L 239.523438 132.042969 L 244.1875 121.613281 Z M 245.953125 121.613281 " clip-rule="nonzero"/></clipPath><clipPath id="8245494b8d"><path d="M 0.0703125 0.613281 L 12.980469 0.613281 L 12.980469 13.277344 L 0.0703125 13.277344 Z M 0.0703125 0.613281 " clip-rule="nonzero"/></clipPath><clipPath id="3dc08b1654"><path d="M 12.953125 0.613281 L 12.953125 13.226562 L 11.300781 13.226562 L 11.300781 3.820312 L 7.105469 13.226562 L 5.9375 13.226562 L 1.734375 3.804688 L 1.734375 13.226562 L 0.0703125 13.226562 L 0.0703125 0.613281 L 1.859375 0.613281 L 6.523438 11.042969 L 11.1875 0.613281 Z M 12.953125 0.613281 " clip-rule="nonzero"/></clipPath><clipPath id="8b7c9bbab4"><rect x="0" width="13" y="0" height="14"/></clipPath><clipPath id="786b659de0"><path d="M 190.503906 49.542969 L 256 49.542969 L 256 106.5 L 190.503906 106.5 Z M 190.503906 49.542969 " clip-rule="nonzero"/></clipPath><clipPath id="7e01032b61"><path d="M 190.613281 103.414062 L 197.730469 103.414062 L 197.730469 65.070312 L 251.707031 106.195312 L 251.863281 106.316406 L 255.957031 99.796875 L 190.613281 49.84375 Z M 190.613281 103.414062 " clip-rule="nonzero"/></clipPath><clipPath id="e28b00104f"><path d="M 0.558594 0.679688 L 66 0.679688 L 66 57.320312 L 0.558594 57.320312 Z M 0.558594 0.679688 " clip-rule="nonzero"/></clipPath><clipPath id="267d49f0ea"><path d="M 0.613281 54.414062 L 7.730469 54.414062 L 7.730469 16.070312 L 61.707031 57.195312 L 61.863281 57.316406 L 65.957031 50.796875 L 0.613281 0.84375 Z M 0.613281 54.414062 " clip-rule="nonzero"/></clipPath><clipPath id="7fc4050dd7"><rect x="0" width="66" y="0" height="58"/></clipPath><clipPath id="77d12a0cab"><path d="M 187 17.574219 L 286.78125 17.574219 L 286.78125 102 L 187 102 Z M 187 17.574219 " clip-rule="nonzero"/></clipPath><clipPath id="e37976b27e"><path d="M 279.359375 86.710938 L 191.265625 17.886719 L 191.105469 17.761719 L 187.015625 24.277344 L 286.515625 101.972656 L 286.515625 20.667969 L 279.359375 20.667969 Z M 279.359375 86.710938 " clip-rule="nonzero"/></clipPath><clipPath id="de1a5ec35c"><path d="M 0 0.761719 L 99.558594 0.761719 L 99.558594 85 L 0 85 Z M 0 0.761719 " clip-rule="nonzero"/></clipPath><clipPath id="e1b97844b7"><path d="M 92.359375 69.710938 L 4.265625 0.886719 L 4.105469 0.761719 L 0.015625 7.277344 L 99.515625 84.972656 L 99.515625 3.667969 L 92.359375 3.667969 Z M 92.359375 69.710938 " clip-rule="nonzero"/></clipPath><clipPath id="8641b8d50f"><rect x="0" width="100" y="0" height="85"/></clipPath><clipPath id="694baa36ee"><path d="M 266.988281 121.503906 L 273.824219 121.503906 L 273.824219 122.875 L 266.988281 122.875 Z M 266.988281 122.875 L 268.652344 122.875 L 268.652344 127.121094 L 266.988281 127.121094 Z M 266.988281 127.121094 L 273.28125 127.121094 L 273.28125 128.488281 L 266.988281 128.488281 Z M 266.988281 128.488281 L 268.652344 128.488281 L 268.652344 132.859375 L 266.988281 132.859375 Z M 266.988281 132.859375 L 273.828125 132.859375 L 273.828125 134.230469 L 266.988281 134.230469 Z M 266.988281 132.859375 " clip-rule="nonzero"/></clipPath><clipPath id="76d9c53519"><path d="M 0.988281 0.503906 L 7.824219 0.503906 L 7.824219 1.875 L 0.988281 1.875 Z M 0.988281 1.875 L 2.652344 1.875 L 2.652344 6.121094 L 0.988281 6.121094 Z M 0.988281 6.121094 L 7.28125 6.121094 L 7.28125 7.488281 L 0.988281 7.488281 Z M 0.988281 7.488281 L 2.652344 7.488281 L 2.652344 11.859375 L 0.988281 11.859375 Z M 0.988281 11.859375 L 7.828125 11.859375 L 7.828125 13.230469 L 0.988281 13.230469 Z M 0.988281 11.859375 " clip-rule="nonzero"/></clipPath><clipPath id="2c74229b2d"><rect x="0" width="8" y="0" height="14"/></clipPath><clipPath id="728299c5d2"><path d="M 294.566406 121.523438 L 305.304688 121.523438 L 305.304688 134.226562 L 294.566406 134.226562 Z M 294.566406 121.523438 " clip-rule="nonzero"/></clipPath><clipPath id="85a8b4211c"><path d="M 302.277344 131.558594 C 303.140625 130.691406 303.570312 129.472656 303.570312 127.90625 C 303.570312 126.324219 303.132812 125.089844 302.265625 124.207031 C 301.398438 123.324219 300.148438 122.871094 298.519531 122.871094 L 296.222656 122.871094 L 296.222656 132.863281 L 298.519531 132.863281 C 300.15625 132.863281 301.410156 132.425781 302.273438 131.558594 M 302.125 122.296875 C 303.140625 122.816406 303.917969 123.550781 304.457031 124.511719 C 305 125.46875 305.269531 126.601562 305.269531 127.898438 C 305.269531 129.195312 305 130.328125 304.457031 131.277344 C 303.917969 132.226562 303.140625 132.960938 302.125 133.464844 C 301.109375 133.964844 299.910156 134.21875 298.523438 134.21875 L 294.566406 134.21875 L 294.566406 121.523438 L 298.519531 121.523438 C 299.902344 121.523438 301.101562 121.78125 302.117188 122.296875 " clip-rule="nonzero"/></clipPath><clipPath id="21a46108d9"><path d="M 0.566406 0.523438 L 11.28125 0.523438 L 11.28125 13.226562 L 0.566406 13.226562 Z M 0.566406 0.523438 " clip-rule="nonzero"/></clipPath><clipPath id="0736882fcf"><path d="M 8.277344 10.558594 C 9.140625 9.691406 9.570312 8.472656 9.570312 6.90625 C 9.570312 5.324219 9.132812 4.089844 8.265625 3.207031 C 7.398438 2.324219 6.148438 1.871094 4.519531 1.871094 L 2.222656 1.871094 L 2.222656 11.863281 L 4.519531 11.863281 C 6.15625 11.863281 7.410156 11.425781 8.273438 10.558594 M 8.125 1.296875 C 9.140625 1.816406 9.917969 2.550781 10.457031 3.511719 C 11 4.46875 11.269531 5.601562 11.269531 6.898438 C 11.269531 8.195312 11 9.328125 10.457031 10.277344 C 9.917969 11.226562 9.140625 11.960938 8.125 12.464844 C 7.109375 12.964844 5.910156 13.21875 4.523438 13.21875 L 0.566406 13.21875 L 0.566406 0.523438 L 4.519531 0.523438 C 5.902344 0.523438 7.101562 0.78125 8.117188 1.296875 " clip-rule="nonzero"/></clipPath><clipPath id="fbbeb500a0"><rect x="0" width="12" y="0" height="14"/></clipPath><clipPath id="6209f014a3"><path d="M 324.621094 121.523438 L 334.609375 121.523438 L 334.609375 134.234375 L 324.621094 134.234375 Z M 324.621094 121.523438 " clip-rule="nonzero"/></clipPath><clipPath id="75affa330b"><path d="M 334.574219 121.523438 L 330.433594 129.433594 L 330.433594 134.226562 L 328.777344 134.226562 L 328.777344 129.433594 L 324.621094 121.523438 L 326.464844 121.523438 L 329.59375 127.960938 L 332.730469 121.523438 Z M 334.574219 121.523438 " clip-rule="nonzero"/></clipPath><clipPath id="0e19755c98"><path d="M 0.621094 0.523438 L 10.609375 0.523438 L 10.609375 13.234375 L 0.621094 13.234375 Z M 0.621094 0.523438 " clip-rule="nonzero"/></clipPath><clipPath id="4d9693fbdc"><path d="M 10.574219 0.523438 L 6.433594 8.433594 L 6.433594 13.226562 L 4.777344 13.226562 L 4.777344 8.433594 L 0.621094 0.523438 L 2.464844 0.523438 L 5.59375 6.960938 L 8.730469 0.523438 Z M 10.574219 0.523438 " clip-rule="nonzero"/></clipPath><clipPath id="74186b3081"><rect x="0" width="11" y="0" height="14"/></clipPath><clipPath id="71500f6640"><path d="M 300.835938 17.761719 L 365.429688 17.761719 L 365.429688 24.207031 L 300.835938 24.207031 Z M 328.980469 24.207031 L 336.234375 24.207031 L 336.234375 105.832031 L 328.980469 105.832031 Z M 328.980469 24.207031 " clip-rule="nonzero"/></clipPath><clipPath id="43fb9b2d7f"><path d="M 0.835938 0.761719 L 65.429688 0.761719 L 65.429688 7.207031 L 0.835938 7.207031 Z M 28.980469 7.207031 L 36.234375 7.207031 L 36.234375 88.832031 L 28.980469 88.832031 Z M 28.980469 7.207031 " clip-rule="nonzero"/></clipPath><clipPath id="27a09c700c"><rect x="0" width="66" y="0" height="89"/></clipPath><clipPath id="a3567c906e"><path d="M 353.746094 121.597656 L 364.871094 121.597656 L 364.871094 134.238281 L 353.746094 134.238281 Z M 353.746094 121.597656 " clip-rule="nonzero"/></clipPath><clipPath id="2bb9aa6803"><path d="M 361.585938 130.054688 L 359.289062 123.640625 L 356.992188 130.054688 Z M 362.058594 131.402344 L 356.515625 131.402344 L 355.496094 134.226562 L 353.746094 134.226562 L 358.339844 121.597656 L 360.253906 121.597656 L 364.828125 134.226562 L 363.082031 134.226562 Z M 362.058594 131.402344 " clip-rule="nonzero"/></clipPath><clipPath id="be4476f0e6"><path d="M 0.746094 0.597656 L 11.871094 0.597656 L 11.871094 13.238281 L 0.746094 13.238281 Z M 0.746094 0.597656 " clip-rule="nonzero"/></clipPath><clipPath id="b6be22e841"><path d="M 8.585938 9.054688 L 6.289062 2.640625 L 3.992188 9.054688 Z M 9.058594 10.402344 L 3.515625 10.402344 L 2.496094 13.226562 L 0.746094 13.226562 L 5.339844 0.597656 L 7.253906 0.597656 L 11.828125 13.226562 L 10.082031 13.226562 Z M 9.058594 10.402344 " clip-rule="nonzero"/></clipPath><clipPath id="5d4f08a7bb"><rect x="0" width="12" y="0" height="14"/></clipPath></defs><g clip-path="url(#ec7ea5c7e8)"><g clip-path="url(#22a923727f)"><g transform="matrix(1, 0, 0, 1, 11, 121)"><g clip-path="url(#c3bedd548b)"><g clip-path="url(#1b0a6d2d82)"><g clip-path="url(#ab855b7a77)"><path fill="#231f20" d="M 0.421875 0.472656 L 11.121094 0.472656 L 11.121094 13.179688 L 0.421875 13.179688 Z M 0.421875 0.472656 " fill-opacity="1" fill-rule="nonzero"/></g></g></g></g></g></g><g clip-path="url(#5c4839bd99)"><g transform="matrix(1, 0, 0, 1, 11, 54)"><g clip-path="url(#9e126f899f)"><g clip-path="url(#0ffa539557)"><path fill="#475aa9" d="M 0.570312 0.617188 L 36.160156 0.617188 L 36.160156 51.082031 L 0.570312 51.082031 Z M 0.570312 0.617188 " fill-opacity="1" fill-rule="nonzero"/></g></g></g></g><g clip-path="url(#daf0d7ad8a)"><g transform="matrix(1, 0, 0, 1, 42, 121)"><g clip-path="url(#873f17d2e8)"><g clip-path="url(#d2602459be)"><path fill="#231f20" d="M 0.53125 0.472656 L 2.191406 0.472656 L 2.191406 13.179688 L 0.53125 13.179688 Z M 0.53125 0.472656 " fill-opacity="1" fill-rule="nonzero"/></g></g></g></g><g clip-path="url(#243b4718ae)"><g clip-path="url(#b511e202d1)"><g transform="matrix(1, 0, 0, 1, 64, 121)"><g clip-path="url(#d6f9e58ab4)"><g clip-path="url(#80a07d658e)"><g clip-path="url(#a366b7977f)"><path fill="#231f20" d="M 0.585938 0.472656 L 7.640625 0.472656 L 7.640625 13.3125 L 0.585938 13.3125 Z M 0.585938 0.472656 " fill-opacity="1" fill-rule="nonzero"/></g></g></g></g></g></g><g clip-path="url(#c59b854f16)"><g transform="matrix(1, 0, 0, 1, 93, 121)"><g clip-path="url(#c1736d22f4)"><g clip-path="url(#96daae5ef2)"><path fill="#231f20" d="M 0.128906 0.472656 L 1.789062 0.472656 L 1.789062 13.179688 L 0.128906 13.179688 Z M 0.128906 0.472656 " fill-opacity="1" fill-rule="nonzero"/></g></g></g></g><g clip-path="url(#57cac85aca)"><g transform="matrix(1, 0, 0, 1, 115, 121)"><g clip-path="url(#063a09a383)"><g clip-path="url(#de65ab55a0)"><path fill="#231f20" d="M 0.0546875 0.472656 L 8.65625 0.472656 L 8.65625 13.175781 L 0.0546875 13.175781 Z M 0.0546875 0.472656 " fill-opacity="1" fill-rule="nonzero"/></g></g></g></g><g clip-path="url(#e081690cd6)"><g clip-path="url(#a37768f944)"><g transform="matrix(1, 0, 0, 1, 77, 18)"><g clip-path="url(#24c6a72d42)"><g clip-path="url(#10da0f50c3)"><g clip-path="url(#b9ffb3c62e)"><rect x="-159.5" width="540" fill="#475aa9" height="215.999996" y="-50.999999" fill-opacity="1"/></g></g></g></g></g></g><g clip-path="url(#527e0e0139)"><g clip-path="url(#7b1fdee468)"><g transform="matrix(1, 0, 0, 1, 97, 40)"><g clip-path="url(#de991525f9)"><g clip-path="url(#b67a0555b1)"><g clip-path="url(#402fd02c94)"><rect x="-179.5" width="540" fill="#475aa9" height="215.999996" y="-72.999999" fill-opacity="1"/></g></g></g></g></g></g><g clip-path="url(#be4ba1833b)"><g transform="matrix(1, 0, 0, 1, 11, 18)"><g clip-path="url(#c5e7f207ac)"><g clip-path="url(#811ce2d7cf)"><rect x="-93.5" width="540" fill="#475aa9" height="215.999996" y="-50.999999" fill-opacity="1"/></g></g></g></g><g clip-path="url(#69fd8bd5c7)"><g clip-path="url(#79da063260)"><g transform="matrix(1, 0, 0, 1, 143, 121)"><g clip-path="url(#8aad176e76)"><g clip-path="url(#f63d6fb0a2)"><g clip-path="url(#e4885946e4)"><path fill="#231f20" d="M 0.121094 0.546875 L 11.203125 0.546875 L 11.203125 13.1875 L 0.121094 13.1875 Z M 0.121094 0.546875 " fill-opacity="1" fill-rule="nonzero"/></g></g></g></g></g></g><g clip-path="url(#3e76bf6170)"><g transform="matrix(1, 0, 0, 1, 174, 121)"><g clip-path="url(#636c66c6cc)"><g clip-path="url(#c85f21e0f1)"><path fill="#231f20" d="M 0.433594 0.476562 L 6.539062 0.476562 L 6.539062 13.1875 L 0.433594 13.1875 Z M 0.433594 0.476562 " fill-opacity="1" fill-rule="nonzero"/></g></g></g></g><g clip-path="url(#c66d01582b)"><g clip-path="url(#ff22bfcf7d)"><g transform="matrix(1, 0, 0, 1, 233, 121)"><g clip-path="url(#8b7c9bbab4)"><g clip-path="url(#8245494b8d)"><g clip-path="url(#3dc08b1654)"><path fill="#231f20" d="M 0.0703125 0.613281 L 12.980469 0.613281 L 12.980469 13.226562 L 0.0703125 13.226562 Z M 0.0703125 0.613281 " fill-opacity="1" fill-rule="nonzero"/></g></g></g></g></g></g><g clip-path="url(#786b659de0)"><g clip-path="url(#7e01032b61)"><g transform="matrix(1, 0, 0, 1, 190, 49)"><g clip-path="url(#7fc4050dd7)"><g clip-path="url(#e28b00104f)"><g clip-path="url(#267d49f0ea)"><rect x="-272.5" width="540" fill="#475aa9" height="215.999996" y="-81.999999" fill-opacity="1"/></g></g></g></g></g></g><g clip-path="url(#77d12a0cab)"><g clip-path="url(#e37976b27e)"><g transform="matrix(1, 0, 0, 1, 187, 17)"><g clip-path="url(#8641b8d50f)"><g clip-path="url(#de1a5ec35c)"><g clip-path="url(#e1b97844b7)"><rect x="-269.5" width="540" fill="#475aa9" height="215.999996" y="-49.999999" fill-opacity="1"/></g></g></g></g></g></g><g clip-path="url(#694baa36ee)"><g transform="matrix(1, 0, 0, 1, 266, 121)"><g clip-path="url(#2c74229b2d)"><g clip-path="url(#76d9c53519)"><path fill="#231f20" d="M 0.988281 0.503906 L 7.824219 0.503906 L 7.824219 13.214844 L 0.988281 13.214844 Z M 0.988281 0.503906 " fill-opacity="1" fill-rule="nonzero"/></g></g></g></g><g clip-path="url(#728299c5d2)"><g clip-path="url(#85a8b4211c)"><g transform="matrix(1, 0, 0, 1, 294, 121)"><g clip-path="url(#fbbeb500a0)"><g clip-path="url(#21a46108d9)"><g clip-path="url(#0736882fcf)"><path fill="#231f20" d="M 0.566406 0.523438 L 11.265625 0.523438 L 11.265625 13.226562 L 0.566406 13.226562 Z M 0.566406 0.523438 " fill-opacity="1" fill-rule="nonzero"/></g></g></g></g></g></g><g clip-path="url(#6209f014a3)"><g clip-path="url(#75affa330b)"><g transform="matrix(1, 0, 0, 1, 324, 121)"><g clip-path="url(#74186b3081)"><g clip-path="url(#0e19755c98)"><g clip-path="url(#4d9693fbdc)"><path fill="#231f20" d="M 0.621094 0.523438 L 10.570312 0.523438 L 10.570312 13.234375 L 0.621094 13.234375 Z M 0.621094 0.523438 " fill-opacity="1" fill-rule="nonzero"/></g></g></g></g></g></g><g clip-path="url(#71500f6640)"><g transform="matrix(1, 0, 0, 1, 300, 17)"><g clip-path="url(#27a09c700c)"><g clip-path="url(#43fb9b2d7f)"><path fill="#475aa9" d="M 0.835938 0.761719 L 65.429688 0.761719 L 65.429688 88.820312 L 0.835938 88.820312 Z M 0.835938 0.761719 " fill-opacity="1" fill-rule="nonzero"/></g></g></g></g><g clip-path="url(#a3567c906e)"><g clip-path="url(#2bb9aa6803)"><g transform="matrix(1, 0, 0, 1, 353, 121)"><g clip-path="url(#5d4f08a7bb)"><g clip-path="url(#be4476f0e6)"><g clip-path="url(#b6be22e841)"><path fill="#231f20" d="M 0.746094 0.597656 L 11.828125 0.597656 L 11.828125 13.238281 L 0.746094 13.238281 Z M 0.746094 0.597656 " fill-opacity="1" fill-rule="nonzero"/></g></g></g></g></g></g></svg>