<?xml version="1.0" encoding="UTF-8" standalone="no"?>
<!DOCTYPE svg PUBLIC "-//W3C//DTD SVG 1.1//EN" "http://www.w3.org/Graphics/SVG/1.1/DTD/svg11.dtd">
<svg width="100%" height="100%" viewBox="0 0 2601 881" version="1.1" xmlns="http://www.w3.org/2000/svg" xmlns:xlink="http://www.w3.org/1999/xlink" xml:space="preserve" xmlns:serif="http://www.serif.com/" style="fill-rule:evenodd;clip-rule:evenodd;stroke-linejoin:round;stroke-miterlimit:2;">
    <g transform="matrix(1,0,0,1,-18949.566667,-1809.954167)">
        <g transform="matrix(4.166667,0,0,4.166667,18000,0)">
            <g transform="matrix(1,0,0,1,535.409,497.7582)">
                <path d="M0,91.802L12.892,91.802L12.892,22.336L110.671,96.835L110.959,97.055L118.366,85.247L0,-5.253L0,91.802Z" style="fill:rgb(71,90,168);fill-rule:nonzero;"/>
            </g>
        </g>
        <g transform="matrix(4.166667,0,0,4.166667,18000,0)">
            <g transform="matrix(1,0,0,1,696.1832,462.045)">
                <path d="M0,97.25L-159.591,-27.43L-159.88,-27.656L-167.29,-15.849L12.96,124.906L12.96,-22.39L0,-22.39L0,97.25Z" style="fill:rgb(71,90,168);fill-rule:nonzero;"/>
            </g>
        </g>
        <g transform="matrix(4.166667,0,0,4.166667,18000,0)">
            <g transform="matrix(1,0,0,1,384.0258,523.9951)">
                <path d="M0,-57.687C19.745,-75.929 46.656,-79.109 70.233,-65.985L71.396,-65.338L81.18,-75.122L79.258,-76.287C64.042,-85.503 47.328,-89.131 30.926,-86.778C15.858,-84.616 1.691,-77.638 -10.044,-66.598C-22.344,-55.027 -30.953,-39.693 -34.287,-23.421C-37.942,-5.578 -35.249,12.661 -26.499,29.323L-25.386,31.444L-15.294,21.352L-15.804,20.239C-29.865,-10.515 -17.998,-41.059 0,-57.687" style="fill:rgb(71,90,168);fill-rule:nonzero;"/>
            </g>
        </g>
        <g transform="matrix(4.166667,0,0,4.166667,18000,0)">
            <g transform="matrix(1,0,0,1,490.0312,594.678)">
                <path d="M0,-119.389L-10.151,-109.239L-9.615,-108.115C4.992,-77.467 -6.638,-46.868 -24.643,-30.138C-36.097,-19.496 -51.109,-13.393 -65.832,-13.393L-65.836,-13.393C-76.046,-13.394 -86.138,-16.197 -95.832,-21.723L-97,-22.389L-106.774,-12.615L-104.868,-11.446C-92.658,-3.958 -79.162,0 -65.842,-0.001C-62.602,-0.001 -59.329,-0.232 -56.115,-0.69C-40.897,-2.855 -26.606,-9.902 -14.788,-21.07C-2.461,-32.717 6.119,-48.117 9.371,-64.434C12.941,-82.349 10.089,-100.63 1.122,-117.301L0,-119.389Z" style="fill:rgb(71,90,168);fill-rule:nonzero;"/>
            </g>
        </g>
        <g transform="matrix(4.166667,0,0,4.166667,18000,0)">
            <g transform="matrix(1,0,0,1,735.0874,593.9391)">
                <path d="M0,-159.55L0,-147.865L50.993,-147.865L50.993,0L64.129,0L64.129,-147.865L117.016,-147.865L117.016,-159.55L0,-159.55Z" style="fill:rgb(71,90,168);fill-rule:nonzero;"/>
            </g>
        </g>
        <g transform="matrix(4.166667,0,0,4.166667,18000,0)">
            <g transform="matrix(1,0,0,1,0,-193.759)">
                <rect x="228.168" y="629.527" width="113.007" height="14.705" style="fill:rgb(71,90,168);"/>
            </g>
        </g>
        <g transform="matrix(4.166667,0,0,4.166667,18000,0)">
            <g transform="matrix(1,0,0,1,242.8729,592.7337)">
                <path d="M49.769,-91.488L-14.705,-91.488L-14.705,0L0,0L0,-76.782L49.769,-76.782L49.769,-91.488Z" style="fill:rgb(71,90,168);fill-rule:nonzero;"/>
            </g>
        </g>
        <g transform="matrix(4.166667,0,0,4.166667,18000,0)">
            <g transform="matrix(1,0,0,1,241.863,627.2028)">
                <path d="M0,13.34C1.563,11.766 2.344,9.559 2.344,6.72C2.344,3.858 1.557,1.624 -0.017,0.017C-1.59,-1.589 -3.852,-2.393 -6.802,-2.393L-10.962,-2.393L-10.962,15.701L-6.802,15.701C-3.83,15.701 -1.563,14.914 0,13.34M-0.281,-3.433C1.557,-2.497 2.966,-1.16 3.946,0.578C4.925,2.318 5.415,4.365 5.415,6.72C5.415,9.075 4.925,11.117 3.946,12.845C2.966,14.573 1.557,15.893 -0.281,16.807C-2.119,17.72 -4.292,18.177 -6.802,18.177L-13.967,18.177L-13.967,-4.837L-6.802,-4.837C-4.292,-4.837 -2.119,-4.369 -0.281,-3.433" style="fill:rgb(35,31,32);fill-rule:nonzero;"/>
            </g>
        </g>
        <g transform="matrix(4.166667,0,0,4.166667,18000,0)">
            <g transform="matrix(-1,0,0,1,571.519,187.746)">
                <rect x="284.257" y="434.62" width="3.005" height="23.014" style="fill:rgb(35,31,32);"/>
            </g>
        </g>
        <g transform="matrix(4.166667,0,0,4.166667,18000,0)">
            <g transform="matrix(1,0,0,1,336.9881,645.6111)">
                <path d="M0,-23.245L0,-6.241C0,-4.347 -0.584,-2.834 -1.75,-1.7C-2.917,-0.567 -4.458,0 -6.373,0C-8.31,0 -9.862,-0.578 -11.028,-1.733C-12.195,-2.889 -12.778,-4.468 -12.778,-6.472L-9.774,-6.472C-9.752,-5.349 -9.46,-4.435 -8.899,-3.731C-8.337,-3.026 -7.495,-2.675 -6.373,-2.675C-5.25,-2.675 -4.414,-3.01 -3.863,-3.682C-3.313,-4.353 -3.038,-5.206 -3.038,-6.241L-3.038,-23.245L0,-23.245Z" style="fill:rgb(35,31,32);fill-rule:nonzero;"/>
            </g>
        </g>
        <g transform="matrix(4.166667,0,0,4.166667,18000,0)">
            <g transform="matrix(-1,0,0,1,754.837,187.746)">
                <rect x="375.916" y="434.62" width="3.005" height="23.014" style="fill:rgb(35,31,32);"/>
            </g>
        </g>
        <g transform="matrix(4.166667,0,0,4.166667,18000,0)">
            <g transform="matrix(1,0,0,1,431.2217,645.3801)">
                <path d="M0,-23.014L0,-20.571L-6.274,-20.571L-6.274,0L-9.278,0L-9.278,-20.571L-15.585,-20.571L-15.585,-23.014L0,-23.014Z" style="fill:rgb(35,31,32);fill-rule:nonzero;"/>
            </g>
        </g>
        <g transform="matrix(4.166667,0,0,4.166667,18000,0)">
            <g transform="matrix(1,0,0,1,480.6828,630.0595)">
                <path d="M0,7.759L-4.16,-3.863L-8.321,7.759L0,7.759ZM0.858,10.202L-9.179,10.202L-11.028,15.32L-14.198,15.32L-5.877,-7.561L-2.41,-7.561L5.877,15.32L2.707,15.32L0.858,10.202Z" style="fill:rgb(35,31,32);fill-rule:nonzero;"/>
            </g>
        </g>
        <g transform="matrix(4.166667,0,0,4.166667,18000,0)">
            <g transform="matrix(1,0,0,1,526.2145,624.8096)">
                <path d="M0,18.127L8.056,18.127L8.056,20.57L-3.005,20.57L-3.005,-2.443L0,-2.443L0,18.127Z" style="fill:rgb(35,31,32);fill-rule:nonzero;"/>
            </g>
        </g>
        <g transform="matrix(4.166667,0,0,4.166667,18000,0)">
            <g transform="matrix(1,0,0,1,635.67,645.38)">
                <path d="M0,-22.849L0,0L-3.005,0L-3.005,-17.038L-10.599,0L-12.712,0L-20.339,-17.071L-20.339,0L-23.344,0L-23.344,-22.849L-20.108,-22.849L-11.655,-3.962L-3.202,-22.849L0,-22.849Z" style="fill:rgb(35,31,32);fill-rule:nonzero;"/>
            </g>
        </g>
        <g transform="matrix(4.166667,0,0,4.166667,18000,0)">
            <g transform="matrix(1,0,0,1,676.7779,642.9034)">
                <path d="M0,-18.094L0,-10.401L8.387,-10.401L8.387,-7.924L0,-7.924L0,0L9.377,0L9.377,2.476L-3.005,2.476L-3.005,-20.57L9.377,-20.57L9.377,-18.094L0,-18.094Z" style="fill:rgb(35,31,32);fill-rule:nonzero;"/>
            </g>
        </g>
        <g transform="matrix(4.166667,0,0,4.166667,18000,0)">
            <g transform="matrix(1,0,0,1,737.696,627.2028)">
                <path d="M0,13.34C1.563,11.766 2.345,9.559 2.345,6.72C2.345,3.858 1.557,1.624 -0.017,0.017C-1.59,-1.589 -3.852,-2.393 -6.802,-2.393L-10.962,-2.393L-10.962,15.701L-6.802,15.701C-3.83,15.701 -1.563,14.914 0,13.34M-0.28,-3.433C1.557,-2.497 2.966,-1.16 3.946,0.578C4.925,2.318 5.415,4.365 5.415,6.72C5.415,9.075 4.925,11.117 3.946,12.845C2.966,14.573 1.557,15.893 -0.28,16.807C-2.118,17.72 -4.292,18.177 -6.802,18.177L-13.966,18.177L-13.966,-4.837L-6.802,-4.837C-4.292,-4.837 -2.118,-4.369 -0.28,-3.433" style="fill:rgb(35,31,32);fill-rule:nonzero;"/>
            </g>
        </g>
        <g transform="matrix(4.166667,0,0,4.166667,18000,0)">
            <g transform="matrix(1,0,0,1,796.2038,645.3801)">
                <path d="M0,-23.014L-7.495,-8.684L-7.495,0L-10.5,0L-10.5,-8.684L-18.028,-23.014L-14.693,-23.014L-9.014,-11.358L-3.335,-23.014L0,-23.014Z" style="fill:rgb(35,31,32);fill-rule:nonzero;"/>
            </g>
        </g>
        <g transform="matrix(4.166667,0,0,4.166667,18000,0)">
            <g transform="matrix(1,0,0,1,845.1368,630.0595)">
                <path d="M0,7.759L-4.16,-3.863L-8.32,7.759L0,7.759ZM0.859,10.202L-9.179,10.202L-11.028,15.32L-14.198,15.32L-5.877,-7.561L-2.41,-7.561L5.878,15.32L2.708,15.32L0.859,10.202Z" style="fill:rgb(35,31,32);fill-rule:nonzero;"/>
            </g>
        </g>
    </g>
</svg>
