<svg xmlns="http://www.w3.org/2000/svg" xmlns:xlink="http://www.w3.org/1999/xlink" width="500" zoomAndPan="magnify" viewBox="0 0 375 112.499997" height="150" preserveAspectRatio="xMidYMid meet" version="1.0"><defs><clipPath id="1e4be49efc"><path d="M 3.773438 47.519531 L 41.714844 47.519531 L 41.714844 56.175781 L 3.773438 56.175781 Z M 3.773438 56.175781 L 12.429688 56.175781 L 12.429688 101.363281 L 3.773438 101.363281 Z M 3.773438 56.175781 " clip-rule="nonzero"/></clipPath><clipPath id="ee5ad42452"><path d="M 0.773438 0.519531 L 38.714844 0.519531 L 38.714844 9.175781 L 0.773438 9.175781 Z M 0.773438 9.175781 L 9.429688 9.175781 L 9.429688 54.363281 L 0.773438 54.363281 Z M 0.773438 9.175781 " clip-rule="nonzero"/></clipPath><clipPath id="030714afed"><rect x="0" width="39" y="0" height="55"/></clipPath><clipPath id="3276908128"><path d="M 74.21875 9.148438 L 143.335938 9.148438 L 143.335938 79.429688 L 74.21875 79.429688 Z M 74.21875 9.148438 " clip-rule="nonzero"/></clipPath><clipPath id="915d63af8e"><path d="M 95.5 26.957031 C 107.117188 16.222656 122.960938 14.351562 136.832031 22.070312 L 137.511719 22.453125 L 143.269531 16.699219 L 142.140625 16.015625 C 133.1875 10.585938 123.351562 8.453125 113.695312 9.835938 C 104.828125 11.109375 96.492188 15.214844 89.585938 21.714844 C 82.34375 28.523438 77.277344 37.550781 75.320312 47.125 C 73.171875 57.625 74.753906 68.359375 79.902344 78.164062 L 80.554688 79.410156 L 86.496094 73.472656 L 86.195312 72.820312 C 77.917969 54.722656 84.90625 36.742188 95.492188 26.957031 " clip-rule="nonzero"/></clipPath><clipPath id="5f9dae45bb"><path d="M 0.21875 0.148438 L 69.335938 0.148438 L 69.335938 70.429688 L 0.21875 70.429688 Z M 0.21875 0.148438 " clip-rule="nonzero"/></clipPath><clipPath id="58f982b2c2"><path d="M 21.5 17.957031 C 33.117188 7.222656 48.960938 5.351562 62.832031 13.070312 L 63.511719 13.453125 L 69.269531 7.699219 L 68.140625 7.015625 C 59.1875 1.585938 49.351562 -0.546875 39.695312 0.835938 C 30.828125 2.109375 22.492188 6.214844 15.585938 12.714844 C 8.34375 19.523438 3.277344 28.550781 1.320312 38.125 C -0.828125 48.625 0.753906 59.359375 5.902344 69.164062 L 6.554688 70.410156 L 12.496094 64.472656 L 12.195312 63.820312 C 3.917969 45.722656 10.90625 27.742188 21.492188 17.957031 " clip-rule="nonzero"/></clipPath><clipPath id="9995659abb"><rect x="0" width="70" y="0" height="71"/></clipPath><clipPath id="1ba7111296"><path d="M 95 32.058594 L 164.304688 32.058594 L 164.304688 102.730469 L 95 102.730469 Z M 95 32.058594 " clip-rule="nonzero"/></clipPath><clipPath id="f1e00de6d2"><path d="M 157.882812 32.242188 L 151.910156 38.214844 L 152.226562 38.875 C 160.824219 56.914062 153.980469 74.921875 143.378906 84.765625 C 136.640625 91.027344 127.800781 94.625 119.140625 94.625 C 113.128906 94.625 107.191406 92.976562 101.484375 89.722656 L 100.796875 89.328125 L 95.046875 95.078125 L 96.167969 95.765625 C 103.355469 100.175781 111.300781 102.503906 119.140625 102.503906 C 121.046875 102.503906 122.972656 102.371094 124.867188 102.097656 C 133.824219 100.820312 142.234375 96.679688 149.1875 90.105469 C 156.445312 83.25 161.496094 74.183594 163.40625 64.585938 C 165.507812 54.039062 163.832031 43.28125 158.554688 33.472656 Z M 157.882812 32.242188 " clip-rule="nonzero"/></clipPath><clipPath id="e13821ddb8"><path d="M 0 0.0585938 L 69.304688 0.0585938 L 69.304688 70.730469 L 0 70.730469 Z M 0 0.0585938 " clip-rule="nonzero"/></clipPath><clipPath id="f41488e384"><path d="M 62.882812 0.242188 L 56.910156 6.214844 L 57.226562 6.875 C 65.824219 24.914062 58.980469 42.921875 48.378906 52.765625 C 41.640625 59.027344 32.800781 62.625 24.140625 62.625 C 18.128906 62.625 12.191406 60.976562 6.484375 57.722656 L 5.796875 57.328125 L 0.046875 63.078125 L 1.167969 63.765625 C 8.355469 68.175781 16.300781 70.503906 24.140625 70.503906 C 26.046875 70.503906 27.972656 70.371094 29.867188 70.097656 C 38.824219 68.820312 47.234375 64.679688 54.1875 58.105469 C 61.445312 51.25 66.496094 42.183594 68.40625 32.585938 C 70.507812 22.039062 68.832031 11.28125 63.554688 1.472656 Z M 62.882812 0.242188 " clip-rule="nonzero"/></clipPath><clipPath id="6ed021a23f"><rect x="0" width="70" y="0" height="71"/></clipPath><clipPath id="3059995df7"><path d="M 3.773438 8.984375 L 70.28125 8.984375 L 70.28125 17.640625 L 3.773438 17.640625 Z M 3.773438 8.984375 " clip-rule="nonzero"/></clipPath><clipPath id="c4289c756a"><path d="M 0.773438 0.984375 L 67.28125 0.984375 L 67.28125 9.640625 L 0.773438 9.640625 Z M 0.773438 0.984375 " clip-rule="nonzero"/></clipPath><clipPath id="18f3a2798b"><rect x="0" width="68" y="0" height="10"/></clipPath><clipPath id="0ca702c094"><path d="M 187.671875 43 L 257.804688 43 L 257.804688 103.40625 L 187.671875 103.40625 Z M 187.671875 43 " clip-rule="nonzero"/></clipPath><clipPath id="973cf18462"><path d="M 187.792969 100.117188 L 195.378906 100.117188 L 195.378906 59.238281 L 252.921875 103.082031 L 253.09375 103.210938 L 257.457031 96.261719 L 187.792969 43 Z M 187.792969 100.117188 " clip-rule="nonzero"/></clipPath><clipPath id="c9abd453cd"><path d="M 0.679688 0 L 70.6875 0 L 70.6875 60.222656 L 0.679688 60.222656 Z M 0.679688 0 " clip-rule="nonzero"/></clipPath><clipPath id="cabeed8e64"><path d="M 0.792969 57.117188 L 8.378906 57.117188 L 8.378906 16.238281 L 65.921875 60.082031 L 66.09375 60.210938 L 70.457031 53.261719 L 0.792969 0 Z M 0.792969 57.117188 " clip-rule="nonzero"/></clipPath><clipPath id="c5572919ed"><rect x="0" width="71" y="0" height="61"/></clipPath><clipPath id="43b0ff3f5e"><path d="M 183.753906 8.59375 L 290.320312 8.59375 L 290.320312 98.707031 L 183.753906 98.707031 Z M 183.753906 8.59375 " clip-rule="nonzero"/></clipPath><clipPath id="b35d21bd19"><path d="M 282.410156 82.308594 L 188.488281 8.929688 L 188.316406 8.792969 L 183.957031 15.746094 L 290.035156 98.578125 L 290.035156 11.894531 L 282.410156 11.894531 Z M 282.410156 82.308594 " clip-rule="nonzero"/></clipPath><clipPath id="450d9fc8f0"><path d="M 0.855469 0.601562 L 107.183594 0.601562 L 107.183594 90.679688 L 0.855469 90.679688 Z M 0.855469 0.601562 " clip-rule="nonzero"/></clipPath><clipPath id="a301aebb75"><path d="M 99.410156 74.308594 L 5.488281 0.929688 L 5.316406 0.792969 L 0.957031 7.746094 L 107.035156 90.578125 L 107.035156 3.894531 L 99.410156 3.894531 Z M 99.410156 74.308594 " clip-rule="nonzero"/></clipPath><clipPath id="e4b0612eeb"><rect x="0" width="108" y="0" height="91"/></clipPath><clipPath id="1199e16bff"><path d="M 305.304688 8.792969 L 374.167969 8.792969 L 374.167969 15.667969 L 305.304688 15.667969 Z M 335.3125 15.667969 L 343.046875 15.667969 L 343.046875 102.691406 L 335.3125 102.691406 Z M 335.3125 15.667969 " clip-rule="nonzero"/></clipPath><clipPath id="213a5977db"><path d="M 0.304688 0.792969 L 69.167969 0.792969 L 69.167969 7.667969 L 0.304688 7.667969 Z M 30.3125 7.667969 L 38.046875 7.667969 L 38.046875 94.691406 L 30.3125 94.691406 Z M 30.3125 7.667969 " clip-rule="nonzero"/></clipPath><clipPath id="67f6f151f3"><rect x="0" width="70" y="0" height="95"/></clipPath></defs><g clip-path="url(#1e4be49efc)"><g transform="matrix(1, 0, 0, 1, 3, 47)"><g clip-path="url(#030714afed)"><g clip-path="url(#ee5ad42452)"><path fill="#475aa9" d="M 0.773438 0.519531 L 38.714844 0.519531 L 38.714844 54.320312 L 0.773438 54.320312 Z M 0.773438 0.519531 " fill-opacity="1" fill-rule="nonzero"/></g></g></g></g><g clip-path="url(#3276908128)"><g clip-path="url(#915d63af8e)"><g transform="matrix(1, 0, 0, 1, 74, 9)"><g clip-path="url(#9995659abb)"><g clip-path="url(#5f9dae45bb)"><g clip-path="url(#58f982b2c2)"><rect x="-156.5" width="540" fill="#475aa9" height="161.999995" y="-33.749999" fill-opacity="1"/></g></g></g></g></g></g><g clip-path="url(#1ba7111296)"><g clip-path="url(#f1e00de6d2)"><g transform="matrix(1, 0, 0, 1, 95, 32)"><g clip-path="url(#6ed021a23f)"><g clip-path="url(#e13821ddb8)"><g clip-path="url(#f41488e384)"><rect x="-177.5" width="540" fill="#475aa9" height="161.999995" y="-56.749999" fill-opacity="1"/></g></g></g></g></g></g><g clip-path="url(#3059995df7)"><g transform="matrix(1, 0, 0, 1, 3, 8)"><g clip-path="url(#18f3a2798b)"><g clip-path="url(#c4289c756a)"><rect x="-85.5" width="540" fill="#475aa9" height="161.999995" y="-32.749999" fill-opacity="1"/></g></g></g></g><g clip-path="url(#0ca702c094)"><g clip-path="url(#973cf18462)"><g transform="matrix(1, 0, 0, 1, 187, 43)"><g clip-path="url(#c5572919ed)"><g clip-path="url(#c9abd453cd)"><g clip-path="url(#cabeed8e64)"><rect x="-269.5" width="540" fill="#475aa9" height="161.999995" y="-67.749999" fill-opacity="1"/></g></g></g></g></g></g><g clip-path="url(#43b0ff3f5e)"><g clip-path="url(#b35d21bd19)"><g transform="matrix(1, 0, 0, 1, 183, 8)"><g clip-path="url(#e4b0612eeb)"><g clip-path="url(#450d9fc8f0)"><g clip-path="url(#a301aebb75)"><rect x="-265.5" width="540" fill="#475aa9" height="161.999995" y="-32.749999" fill-opacity="1"/></g></g></g></g></g></g><g clip-path="url(#1199e16bff)"><g transform="matrix(1, 0, 0, 1, 305, 8)"><g clip-path="url(#67f6f151f3)"><g clip-path="url(#213a5977db)"><path fill="#475aa9" d="M 0.304688 0.792969 L 69.171875 0.792969 L 69.171875 94.679688 L 0.304688 94.679688 Z M 0.304688 0.792969 " fill-opacity="1" fill-rule="nonzero"/></g></g></g></g></svg>