<svg width="150" height="155" viewBox="0 0 150 155" fill="none" xmlns="http://www.w3.org/2000/svg">
<path fill-rule="evenodd" clip-rule="evenodd" d="M66.0053 0.672861C74.0354 -0.224304 78.7871 -0.224305 87.4154 0.672858C102.689 2.93343 116.847 9.99322 127.843 20.8313C120.412 27.8551 113.079 34.9814 105.846 42.2082C91.9935 30.4676 76.5312 27.7576 59.4593 34.0784C46.9359 39.8379 38.2153 49.1714 33.2975 62.0787C25.2612 56.0958 17.3295 49.9735 9.50609 43.7146C8.96239 43.4284 8.34142 43.3236 7.73392 43.4155C20.1613 19.4542 39.5814 5.20299 65.9942 0.661785" fill="#F44336"/>
<path fill-rule="evenodd" clip-rule="evenodd" d="M7.71176 43.4155C8.33941 43.3195 8.9449 43.4192 9.50609 43.7146C17.3295 49.9735 25.2501 56.0958 33.2865 62.0787C32.0219 67.1079 31.2247 72.2432 30.9051 77.4191C31.1783 82.4255 31.9721 87.3396 33.2865 92.1614L8.30988 112.043C-2.56685 89.3149 -2.76622 66.439 7.71176 43.4155Z" fill="#FFC107"/>
<path fill-rule="evenodd" clip-rule="evenodd" d="M126.658 136.122C118.881 129.264 110.739 122.83 102.268 116.85C110.76 110.854 115.914 102.628 117.731 92.1725L76.1177 92.1725L76.1177 63.275C100.116 63.0756 124.103 63.2786 148.079 63.8841C152.628 88.5838 147.374 110.854 132.318 130.695C130.528 132.598 128.631 134.41 126.658 136.122Z" fill="#448AFF"/>
<path fill-rule="evenodd" clip-rule="evenodd" d="M33.2865 92.1614C42.3689 114.735 59.02 125.283 83.2397 123.784C90.0386 122.997 96.557 120.621 102.268 116.85C110.745 122.846 118.875 129.27 126.658 136.122C114.326 147.204 98.6035 153.779 82.0545 154.775C78.2947 155.075 74.5168 155.075 70.7569 154.775C42.5646 151.452 21.7489 137.208 8.30988 112.043L33.2865 92.1614Z" fill="#43A047"/>
</svg>
