<svg width="30" height="27" viewBox="0 0 30 27" fill="none" xmlns="http://www.w3.org/2000/svg">
<path d="M15.0099 12.8449L8.47265 24.0235C7.94226 24.9308 7.06814 25.5931 6.04258 25.8648C5.01703 26.1365 3.92405 25.9952 3.00408 25.4722C2.08412 24.9491 1.41254 24.087 1.13707 23.0756C0.861606 22.0641 1.00482 20.9862 1.53522 20.0789L11.5331 2.99127M1.00157 22.0512C1.00157 23.0981 1.42324 24.1021 2.17383 24.8423C2.92442 25.5826 3.94244 25.9985 5.00393 25.9985C6.06543 25.9985 7.08345 25.5826 7.83404 24.8423C8.58463 24.1021 9.0063 23.0981 9.0063 22.0512C9.0063 21.0043 8.58463 20.0003 7.83404 19.2601C7.08345 18.5198 6.06543 18.104 5.00393 18.104C3.94244 18.104 2.92442 18.5198 2.17383 19.2601C1.42324 20.0003 1.00157 21.0043 1.00157 22.0512ZM13.01 1.52684C12.5546 1.78592 12.1553 2.13096 11.8351 2.54225C11.5149 2.95355 11.2801 3.42303 11.1439 3.92388C11.0077 4.42472 10.973 4.94712 11.0416 5.46122C11.1102 5.97533 11.2809 6.47106 11.5438 6.92009L21.5497 24.0248C22.0855 24.9211 22.9583 25.5726 23.9785 25.8375C24.9987 26.1024 26.0837 25.9594 26.9976 25.4395C27.9114 24.9196 28.5801 24.0649 28.8583 23.0613C29.1365 22.0577 29.0017 20.9863 28.4832 20.0802L18.4772 2.97548C18.2147 2.52637 17.8649 2.13267 17.4481 1.81687C17.0312 1.50107 16.5553 1.26935 16.0476 1.13495C15.5399 1.00055 15.0103 0.966101 14.4891 1.03357C13.9679 1.10103 13.4653 1.26778 13.01 1.52684Z" stroke="#5C45FD" stroke-width="2" stroke-linecap="round" stroke-linejoin="round"/>
</svg>
