<svg width="28" height="29" viewBox="0 0 28 29" fill="none" xmlns="http://www.w3.org/2000/svg">
<path d="M20.2621 0H26.9729L27.1203 0.0202999L27.2661 0.0609001L27.3546 0.0986001C27.4725 0.148867 27.58 0.221367 27.6773 0.3161L27.7362 0.3799L27.8011 0.46255L27.8806 0.59305L27.9381 0.72355L27.9661 0.81635L27.9867 0.90915L28 1.0469V7.6183C27.9999 7.89383 27.8935 8.15906 27.7024 8.3604C27.5112 8.56173 27.2495 8.68416 26.9701 8.70294C26.6908 8.72172 26.4146 8.63545 26.1973 8.46157C25.9801 8.28769 25.8381 8.03916 25.7999 7.7662L25.7896 7.6183V3.71055L16.2996 13.0485C16.1125 13.2327 15.8644 13.3447 15.6004 13.3641C15.3365 13.3836 15.0743 13.3091 14.8614 13.1544L14.7376 13.05L10.2726 8.8305L1.88777 17.0796C1.69057 17.2741 1.42581 17.388 1.14673 17.3984C0.867659 17.4087 0.594957 17.3147 0.383458 17.1352C0.171959 16.9558 0.0373459 16.7042 0.00668424 16.431C-0.0239774 16.1579 0.0515857 15.8835 0.218181 15.6629L0.325754 15.5411L9.49156 6.5221C9.67887 6.33814 9.92706 6.22643 10.191 6.20727C10.4549 6.18811 10.7171 6.26278 10.9298 6.4177L11.0536 6.5221L15.5186 10.7416L24.2246 2.175H20.2606C19.9938 2.17464 19.7361 2.07931 19.5352 1.90661C19.3342 1.73391 19.2035 1.49551 19.1672 1.2354L19.1569 1.0875C19.1569 0.824706 19.2536 0.570804 19.4292 0.372751C19.6047 0.174697 19.8472 0.04589 20.1118 0.01015L20.2621 0ZM1.10676 21.75C1.39988 21.75 1.68099 21.8646 1.88826 22.0685C2.09552 22.2725 2.21196 22.5491 2.21196 22.8375V27.9125C2.21196 28.2009 2.09552 28.4775 1.88826 28.6815C1.68099 28.8854 1.39988 29 1.10676 29C0.813645 29 0.532533 28.8854 0.325267 28.6815C0.118002 28.4775 0.00156143 28.2009 0.00156143 27.9125V22.8375C0.00156143 22.5491 0.118002 22.2725 0.325267 22.0685C0.532533 21.8646 0.813645 21.75 1.10676 21.75ZM9.57997 17.0375C9.57997 16.7491 9.46353 16.4725 9.25627 16.2685C9.049 16.0646 8.76789 15.95 8.47477 15.95C8.18165 15.95 7.90054 16.0646 7.69328 16.2685C7.48601 16.4725 7.36957 16.7491 7.36957 17.0375V27.9125C7.36957 28.2009 7.48601 28.4775 7.69328 28.6815C7.90054 28.8854 8.18165 29 8.47477 29C8.76789 29 9.049 28.8854 9.25627 28.6815C9.46353 28.4775 9.57997 28.2009 9.57997 27.9125V17.0375ZM15.8428 18.85C16.1359 18.85 16.417 18.9646 16.6243 19.1685C16.8315 19.3725 16.948 19.6491 16.948 19.9375V27.9125C16.948 28.2009 16.8315 28.4775 16.6243 28.6815C16.417 28.8854 16.1359 29 15.8428 29C15.5497 29 15.2686 28.8854 15.0613 28.6815C14.854 28.4775 14.7376 28.2009 14.7376 27.9125V19.9375C14.7376 19.6491 14.854 19.3725 15.0613 19.1685C15.2686 18.9646 15.5497 18.85 15.8428 18.85ZM24.316 12.6875C24.316 12.3991 24.1996 12.1225 23.9923 11.9185C23.785 11.7146 23.5039 11.6 23.2108 11.6C22.9177 11.6 22.6366 11.7146 22.4293 11.9185C22.222 12.1225 22.1056 12.3991 22.1056 12.6875V27.9125C22.1056 28.2009 22.222 28.4775 22.4293 28.6815C22.6366 28.8854 22.9177 29 23.2108 29C23.5039 29 23.785 28.8854 23.9923 28.6815C24.1996 28.4775 24.316 28.2009 24.316 27.9125V12.6875Z" fill="white"/>
</svg>
