<svg width="30" height="30" viewBox="0 0 30 30" fill="none" xmlns="http://www.w3.org/2000/svg">
<path d="M17.7985 2.51178C10.3241 -1.79095 0.99245 3.60382 1 12.2219C1.0063 19.4698 7.79948 24.8017 14.8483 23.0919M1.62581 15.9383H13.7679M1.62581 8.47521H13.7679M9.77385 1.2738C7.76209 8.52273 8.05826 16.2176 10.6213 23.2907M14.6078 1.2738C15.022 2.76088 15.3406 4.27313 15.561 5.80048M28.9987 29H1.29843M23.3967 6.60944V2.13057M25.2641 15.118H21.5281M25.2641 19.6397H21.5281M25.2641 24.1752H21.5281M17.7935 28.9987H29V11.3978C28.9938 11.2379 28.9249 11.0869 28.8084 10.9773C28.6918 10.8676 28.5368 10.8081 28.3767 10.8115H18.4167C18.2568 10.8081 18.1019 10.8677 17.9855 10.9774C17.8692 11.0871 17.8006 11.2381 17.7947 11.3978L17.7935 28.9987ZM20.5963 7.37814C20.6196 7.15309 20.7307 6.94627 20.9057 6.80259C21.0806 6.65891 21.3052 6.58996 21.5306 6.6107H25.2653C25.4906 6.59031 25.7149 6.65942 25.8895 6.80307C26.0641 6.94671 26.1751 7.15333 26.1984 7.37814V10.8115H20.5963V7.37814Z" stroke="#5C45FD" stroke-width="2" stroke-linecap="round" stroke-linejoin="round"/>
</svg>
