<svg width="13" height="17" viewBox="0 0 13 17" fill="none" xmlns="http://www.w3.org/2000/svg">
<path d="M4.1 16.5H8.9M7.7 4.80769L5.9 6.65385L7.1 7.88462L5.3 9.73077M12.5 6.65385V7.88462C12.5 8.86923 11.6996 9.93631 11.3 10.3462L9.5 12.1923L8.9 14.0385H4.1L3.5 12.1923L1.7 10.3462C1.3004 9.93631 0.5 8.86923 0.5 7.88462V6.65385C0.5 5.02174 1.13214 3.45649 2.25736 2.30242C3.38258 1.14835 4.9087 0.5 6.5 0.5C8.0913 0.5 9.61742 1.14835 10.7426 2.30242C11.8679 3.45649 12.5 5.02174 12.5 6.65385Z" stroke="#5C45FD"/>
</svg>
