<svg width="30" height="30" viewBox="0 0 30 30" fill="none" xmlns="http://www.w3.org/2000/svg">
<path d="M0.772403 26.3784C2.35323 28.6398 9.23102 30.4138 12.4809 26.1824C15.9954 27.8626 21.7908 27.3418 26.5109 24.7093C27.1662 24.3453 27.7865 23.8832 28.1673 23.2335C29.0257 21.7703 29.0453 19.74 27.4798 16.7449C24.8685 10.2283 20.1736 4.50701 18.2777 2.20645C17.8885 1.85219 15.4059 1.34811 13.8909 0.862239C13.2216 0.656407 11.9768 0.519185 10.4884 2.48229C9.7813 3.41203 6.57344 5.69859 10.6424 7.23463C11.2739 7.39565 11.7374 7.6911 14.6148 7.16602C14.9886 7.10161 15.924 7.16602 16.5835 8.3226L17.9613 10.2927C18.0901 10.4752 18.1715 10.687 18.1979 10.9088C18.4387 13.0077 18.4303 15.6345 19.6009 16.9661C17.7946 15.6583 13.0704 14.1069 9.51106 18.5232M0.75 16.0658C2.3523 14.6376 4.39506 13.8008 6.5388 13.6943C8.68254 13.5878 10.7982 14.2182 12.5341 15.4805" stroke="white" stroke-width="1.5" stroke-linecap="round" stroke-linejoin="round"/>
</svg>
