<svg width="28" height="28" viewBox="0 0 28 28" fill="none" xmlns="http://www.w3.org/2000/svg">
<path d="M1.4 7C1.00333 7 0.671066 6.8656 0.4032 6.5968C0.135333 6.328 0.000933333 5.99573 0 5.6V1.4C0 1.00333 0.1344 0.671066 0.4032 0.4032C0.672 0.135333 1.00427 0.000933333 1.4 0H5.6C5.99666 0 6.3294 0.1344 6.5982 0.4032C6.86699 0.672 7.00093 1.00427 7 1.4C6.99906 1.79573 6.86466 2.12847 6.5968 2.3982C6.32893 2.66793 5.99666 2.80186 5.6 2.8H2.8V5.6C2.8 5.99666 2.6656 6.3294 2.3968 6.5982C2.128 6.86699 1.79573 7.00093 1.4 7ZM1.4 28C1.00333 28 0.671066 27.8656 0.4032 27.5968C0.135333 27.328 0.000933333 26.9957 0 26.6V22.4C0 22.0033 0.1344 21.6711 0.4032 21.4032C0.672 21.1353 1.00427 21.0009 1.4 21C1.79573 20.9991 2.12847 21.1335 2.3982 21.4032C2.66793 21.6729 2.80186 22.0052 2.8 22.4V25.2H5.6C5.99666 25.2 6.3294 25.3344 6.5982 25.6032C6.86699 25.872 7.00093 26.2042 7 26.6C6.99906 26.9957 6.86466 27.3284 6.5968 27.5982C6.32893 27.8679 5.99666 28.0018 5.6 28H1.4ZM22.4 28C22.0033 28 21.6711 27.8656 21.4032 27.5968C21.1353 27.328 21.0009 26.9957 21 26.6C20.9991 26.2042 21.1335 25.872 21.4032 25.6032C21.6729 25.3344 22.0052 25.2 22.4 25.2H25.2V22.4C25.2 22.0033 25.3344 21.6711 25.6032 21.4032C25.872 21.1353 26.2042 21.0009 26.6 21C26.9957 20.9991 27.3284 21.1335 27.5982 21.4032C27.8679 21.6729 28.0018 22.0052 28 22.4V26.6C28 26.9966 27.8656 27.3294 27.5968 27.5982C27.328 27.867 26.9957 28.0009 26.6 28H22.4ZM26.6 7C26.2033 7 25.871 6.8656 25.6032 6.5968C25.3353 6.328 25.2009 5.99573 25.2 5.6V2.8H22.4C22.0033 2.8 21.6711 2.6656 21.4032 2.3968C21.1353 2.128 21.0009 1.79573 21 1.4C20.9991 1.00427 21.1335 0.672 21.4032 0.4032C21.6729 0.1344 22.0052 0 22.4 0H26.6C26.9966 0 27.3294 0.1344 27.5982 0.4032C27.867 0.672 28.0009 1.00427 28 1.4V5.6C28 5.99666 27.8656 6.3294 27.5968 6.5982C27.328 6.86699 26.9957 7.00093 26.6 7ZM21.7 23.8V21.7H23.8V23.8H21.7ZM21.7 19.6V17.5H23.8V19.6H21.7ZM19.6 21.7V19.6H21.7V21.7H19.6ZM17.5 23.8V21.7H19.6V23.8H17.5ZM15.4 21.7V19.6H17.5V21.7H15.4ZM19.6 17.5V15.4H21.7V17.5H19.6ZM17.5 19.6V17.5H19.6V19.6H17.5ZM15.4 17.5V15.4H17.5V17.5H15.4ZM16.8 12.6C16.4033 12.6 16.0711 12.4656 15.8032 12.1968C15.5353 11.928 15.4009 11.5957 15.4 11.2V5.6C15.4 5.20333 15.5344 4.87106 15.8032 4.6032C16.072 4.33533 16.4043 4.20093 16.8 4.2H22.4C22.7967 4.2 23.1294 4.3344 23.3982 4.6032C23.667 4.872 23.8009 5.20426 23.8 5.6V11.2C23.8 11.5967 23.6656 11.9294 23.3968 12.1982C23.128 12.467 22.7957 12.6009 22.4 12.6H16.8ZM5.6 23.8C5.20333 23.8 4.87106 23.6656 4.6032 23.3968C4.33533 23.128 4.20093 22.7957 4.2 22.4V16.8C4.2 16.4033 4.3344 16.0711 4.6032 15.8032C4.872 15.5353 5.20426 15.4009 5.6 15.4H11.2C11.5967 15.4 11.9294 15.5344 12.1982 15.8032C12.467 16.072 12.6009 16.4043 12.6 16.8V22.4C12.6 22.7967 12.4656 23.1294 12.1968 23.3982C11.928 23.667 11.5957 23.8009 11.2 23.8H5.6ZM5.6 12.6C5.20333 12.6 4.87106 12.4656 4.6032 12.1968C4.33533 11.928 4.20093 11.5957 4.2 11.2V5.6C4.2 5.20333 4.3344 4.87106 4.6032 4.6032C4.872 4.33533 5.20426 4.20093 5.6 4.2H11.2C11.5967 4.2 11.9294 4.3344 12.1982 4.6032C12.467 4.872 12.6009 5.20426 12.6 5.6V11.2C12.6 11.5967 12.4656 11.9294 12.1968 12.1982C11.928 12.467 11.5957 12.6009 11.2 12.6H5.6ZM6.3 21.7H10.5V17.5H6.3V21.7ZM6.3 10.5H10.5V6.3H6.3V10.5ZM17.5 10.5H21.7V6.3H17.5V10.5Z" fill="#5C45FD"/>
</svg>
