<svg width="28" height="25" viewBox="0 0 28 25" fill="none" xmlns="http://www.w3.org/2000/svg">
<path d="M8.90851 1.89184e-07C6.54582 2.24279e-07 4.27991 0.935579 2.60924 2.60092C0.938572 4.26626 0 6.52495 0 8.88009C0 11.2352 0.938572 13.4939 2.60924 15.1593C4.27991 16.8246 6.54582 17.7602 8.90851 17.7602H10.2702C10.1484 16.9188 10.1484 16.0644 10.2702 15.223H8.90851C7.22088 15.223 5.60237 14.5547 4.40903 13.3652C3.2157 12.1757 2.54529 10.5623 2.54529 8.88009C2.54529 7.19785 3.2157 5.5845 4.40903 4.39497C5.60237 3.20544 7.22088 2.53717 8.90851 2.53717H19.0897C20.0333 2.53698 20.9653 2.74602 21.8179 3.14914C22.6705 3.55227 23.4226 4.13939 24.0195 4.86797C24.6164 5.59656 25.0433 6.44837 25.2692 7.3617C25.4951 8.27503 25.5143 9.227 25.3256 10.1487C26.0758 10.8812 26.6902 11.7401 27.1404 12.6858C27.7846 11.3322 28.0746 9.83806 27.9837 8.34258C27.8927 6.84709 27.4236 5.39886 26.6201 4.13271C25.8165 2.86655 24.7047 1.82364 23.388 1.10105C22.0714 0.378461 20.5927 -0.000309035 19.0897 1.89184e-07H8.90851ZM19.0897 12.6858C18.0771 12.6858 17.106 13.0868 16.39 13.8005C15.674 14.5142 15.2717 15.4823 15.2717 16.4916C15.2717 17.501 15.674 18.469 16.39 19.1827C17.106 19.8964 18.0771 20.2974 19.0897 20.2974C20.1022 20.2974 21.0733 19.8964 21.7893 19.1827C22.5053 18.469 22.9076 17.501 22.9076 16.4916C22.9076 15.4823 22.5053 14.5142 21.7893 13.8005C21.0733 13.0868 20.1022 12.6858 19.0897 12.6858ZM12.7264 16.4916C12.7267 15.5026 12.9589 14.5274 13.4046 13.6438C13.8503 12.7603 14.497 11.9928 15.2932 11.4028C16.0895 10.8127 17.0131 10.4165 17.9903 10.2456C18.9675 10.0747 19.9713 10.134 20.9214 10.4187C21.8715 10.7034 22.7417 11.2056 23.4625 11.8852C24.1832 12.5649 24.7346 13.4031 25.0725 14.3329C25.4104 15.2628 25.5255 16.2585 25.4085 17.2406C25.2916 18.2227 24.946 19.1639 24.3991 19.9891L27.6253 23.2062L25.8258 25L22.5983 21.7841C21.6392 22.4161 20.5263 22.7771 19.3778 22.829C18.2293 22.8809 17.0881 22.6217 16.0756 22.0788C15.063 21.536 14.217 20.7298 13.6273 19.7461C13.0376 18.7623 12.7263 17.6376 12.7264 16.4916Z" fill="#5C45FD"/>
</svg>
