<svg width="24" height="25" viewBox="0 0 24 25" fill="none" xmlns="http://www.w3.org/2000/svg">
<path fill-rule="evenodd" clip-rule="evenodd" d="M10.3817 0.759211C10.7869 0.354607 11.3289 0.116532 11.9009 0.091955C12.473 0.0673784 13.0334 0.258086 13.4718 0.626452L13.6183 0.760356L15.7927 2.93373H18.8667C19.444 2.93383 19.9999 3.15206 20.4231 3.54469C20.8463 3.93733 21.1055 4.47536 21.1488 5.05102L21.1557 5.22269V8.29677L23.3301 10.4713C23.735 10.8765 23.9733 11.4188 23.9979 11.9911C24.0225 12.5634 23.8316 13.1241 23.4629 13.5625L23.329 13.7079L21.1545 15.8824V18.9565C21.1547 19.534 20.9366 20.0902 20.5439 20.5136C20.1513 20.937 19.6131 21.1964 19.0373 21.2397L18.8667 21.2454H15.7939L13.6194 23.42C13.2142 23.8249 12.6719 24.0632 12.0996 24.0877C11.5273 24.1123 10.9666 23.9214 10.5282 23.5527L10.3829 23.42L8.20842 21.2454H5.13326C4.55579 21.2456 3.9996 21.0275 3.57617 20.6349C3.15274 20.2422 2.89338 19.704 2.85007 19.1281L2.84434 18.9565V15.8824L0.669876 13.7079C0.26496 13.3027 0.0266882 12.7604 0.00210969 12.1881C-0.0224688 11.6158 0.168433 11.0551 0.537119 10.6166L0.669876 10.4713L2.84434 8.29677V5.22269C2.84445 4.64541 3.06267 4.08949 3.4553 3.66629C3.84792 3.2431 4.38595 2.98389 4.96159 2.94059L5.13326 2.93373H8.20727L10.3817 0.759211Z" fill="#5C45FD"/>
<path fill-rule="evenodd" clip-rule="evenodd" d="M15.5238 8.63668L10.6667 13.4939L8.64331 11.4704C8.42856 11.2558 8.13736 11.1353 7.83377 11.1354C7.53018 11.1355 7.23907 11.2562 7.02447 11.471C6.80988 11.6857 6.68938 11.9769 6.68949 12.2805C6.6896 12.5841 6.8103 12.8753 7.02505 13.0899L9.77632 15.8412C9.89323 15.9582 10.032 16.0509 10.1848 16.1143C10.3376 16.1776 10.5013 16.2101 10.6667 16.2101C10.8321 16.2101 10.9958 16.1776 11.1486 16.1143C11.3014 16.0509 11.4402 15.9582 11.5571 15.8412L17.142 10.255C17.3505 10.0391 17.4659 9.75003 17.4633 9.44995C17.4607 9.14987 17.3403 8.86282 17.1281 8.65062C16.9159 8.43843 16.6289 8.31806 16.3288 8.31545C16.0287 8.31285 15.7396 8.4282 15.5238 8.63668Z" fill="white"/>
</svg>
