<svg width="14" height="14" viewBox="0 0 14 14" fill="none" xmlns="http://www.w3.org/2000/svg">
<path d="M7.00002 4.43254C5.58322 4.43254 4.43242 5.58334 4.43242 7.00014C4.43242 8.41694 5.58322 9.57054 7.00002 9.57054C8.41682 9.57054 9.57042 8.41694 9.57042 7.00014C9.57042 5.58334 8.41682 4.43254 7.00002 4.43254Z" fill="#F5F5F5"/>
<path d="M10.8752 0H3.1248C1.4028 0 0 1.4028 0 3.1248V10.8752C0 12.6 1.4028 14 3.1248 14H10.8752C12.6 14 14 12.6 14 10.8752V3.1248C14 1.4028 12.6 0 10.8752 0ZM7 11.536C4.4996 11.536 2.464 9.5004 2.464 7C2.464 4.4996 4.4996 2.4668 7 2.4668C9.5004 2.4668 11.536 4.4996 11.536 7C11.536 9.5004 9.5004 11.536 7 11.536ZM11.6312 3.29C11.102 3.29 10.6708 2.8616 10.6708 2.3324C10.6708 1.8032 11.102 1.372 11.6312 1.372C12.1604 1.372 12.5916 1.8032 12.5916 2.3324C12.5916 2.8616 12.1604 3.29 11.6312 3.29Z" fill="#F5F5F5"/>
</svg>
