<svg width="14" height="10" viewBox="0 0 14 10" fill="none" xmlns="http://www.w3.org/2000/svg">
<path d="M13.7115 1.53382C13.5502 0.934047 13.0773 0.461256 12.4777 0.299756C11.3821 0 6.99984 0 6.99984 0C6.99984 0 2.61774 0 1.5222 0.288392C0.934047 0.44972 0.449635 0.934133 0.288306 1.53382C0 2.62928 0 4.90112 0 4.90112C0 4.90112 0 7.18441 0.288306 8.26842C0.449805 8.86811 0.922511 9.3409 1.52228 9.5024C2.62928 9.80224 7.00001 9.80224 7.00001 9.80224C7.00001 9.80224 11.3821 9.80224 12.4777 9.51385C13.0774 9.35244 13.5502 8.87964 13.7117 8.27996C13.9999 7.18441 13.9999 4.91266 13.9999 4.91266C13.9999 4.91266 14.0115 2.62928 13.7115 1.53382ZM5.60462 6.99993V2.80231L9.2487 4.90112L5.60462 6.99993Z" fill="#F5F5F5"/>
</svg>
