<svg width="14" height="14" viewBox="0 0 14 14" fill="none" xmlns="http://www.w3.org/2000/svg">
<path fill-rule="evenodd" clip-rule="evenodd" d="M5.22521 0C6.6681 0 7.83782 1.15189 7.83782 2.57282C7.83782 3.94641 6.7448 5.06859 5.36857 5.14185L5.22521 5.14568C3.78233 5.14568 2.61261 3.99379 2.61261 2.57282C2.61261 1.19927 3.70563 0.0770475 5.08186 0.00379037L5.22521 0ZM0 13.2318H6.57083C6.30378 12.7773 6.12181 12.2794 6.03359 11.7616H1.49292V10.5854L1.49681 10.4427C1.56878 9.12072 2.63451 8.08606 3.91889 8.08606H6.5315L6.66824 8.08998C6.80152 8.09767 6.93207 8.11648 7.05901 8.14553C7.43643 7.71486 7.8946 7.35985 8.40844 7.09991C7.85105 6.79131 7.2115 6.61588 6.5315 6.61588H3.91889L3.75738 6.61919C1.66794 6.70499 0 8.4479 0 10.5854V13.2318ZM4.10553 2.57282C4.10553 1.96385 4.60683 1.47017 5.22521 1.47017C5.84359 1.47017 6.3449 1.96385 6.3449 2.57282C6.3449 3.18179 5.84359 3.67547 5.22521 3.67547C4.60683 3.67547 4.10553 3.18179 4.10553 2.57282ZM8.25662 14L10.4504 12.6804L12.6442 14L12.0477 11.5375L14 9.89068L11.4376 9.68837L10.4504 7.35097L9.46318 9.68837L6.90078 9.89068L8.85306 11.5375L8.25662 14Z" fill="#43A047"/>
</svg>
